<?xml version="1.0" encoding="UTF-8" standalone="no"?>
<!-- Created with Inkscape (http://www.inkscape.org/) -->

<svg
   width="512"
   height="512"
   viewBox="0 0 512 512.00002"
   version="1.1"
   id="svg12082"
   inkscape:version="1.2.1 (9c6d41e410, 2022-07-14, custom)"
   sodipodi:docname="cracks1.svg"
   xmlns:inkscape="http://www.inkscape.org/namespaces/inkscape"
   xmlns:sodipodi="http://sodipodi.sourceforge.net/DTD/sodipodi-0.dtd"
   xmlns="http://www.w3.org/2000/svg"
   xmlns:svg="http://www.w3.org/2000/svg">
  <sodipodi:namedview
     id="namedview12084"
     pagecolor="#ffffff"
     bordercolor="#000000"
     borderopacity="0.25"
     inkscape:showpageshadow="2"
     inkscape:pageopacity="0.0"
     inkscape:pagecheckerboard="true"
     inkscape:deskcolor="#d1d1d1"
     inkscape:document-units="px"
     showgrid="true"
     inkscape:zoom="1.0973349"
     inkscape:cx="190.0058"
     inkscape:cy="277.49049"
     inkscape:window-width="1920"
     inkscape:window-height="1030"
     inkscape:window-x="0"
     inkscape:window-y="0"
     inkscape:window-maximized="1"
     inkscape:current-layer="layer1">
    <inkscape:grid
       type="xygrid"
       id="grid12086"
       spacingx="128"
       spacingy="128" />
  </sodipodi:namedview>
  <defs
     id="defs12079" />
  <g
     inkscape:label="Layer 1"
     inkscape:groupmode="layer"
     id="layer1">
    <path
       style="fill:#ffffff;fill-opacity:1;stroke:none;stroke-width:15;stroke-linecap:round;stroke-linejoin:miter;stroke-dasharray:none;stroke-opacity:1"
       id="path13340"
       d="m 221.8884,67.976623 c -2.29983,-0.341808 -4.57442,-1.015304 -6.89949,-1.025425 -6.82231,-0.0297 -13.38636,6.645609 -16.4954,12.094851 -0.95117,1.667128 -1.58387,3.496786 -2.37581,5.245179 -3.06163,8.881585 -2.67042,16.956812 -0.30688,25.857542 1.20613,4.01266 2.76692,7.90336 4.24181,11.82125 1.25483,3.14585 2.18692,6.40654 3.01748,9.68597 0.68035,2.72537 1.16524,5.49025 1.67412,8.25065 0.29565,1.45894 0.0131,2.2992 -0.83289,3.44675 -2.77619,3.90819 -4.43876,8.34779 -5.64749,12.94676 -1.3795,5.97178 -1.21156,12.09855 -0.7321,18.16111 0.11686,1.01903 0.25916,2.03546 0.35057,3.05709 0.38762,4.33218 0.006,2.98703 0.81993,7.36938 0.69265,3.72722 1.73883,7.38802 2.73762,11.0407 2.26044,7.23297 3.05282,14.76029 3.86954,22.25622 -0.36694,11.46347 2.80284,22.47141 6.59803,33.15404 1.75695,4.78102 3.89282,9.46018 4.8887,14.48325 0.56604,2.85503 0.54299,3.69514 0.77068,6.61772 0.18204,5.70671 -0.23454,11.43789 -1.5159,17.0124 -0.99503,4.32887 -2.383,8.43761 -3.7094,12.67659 -4.20305,13.16819 -8.78327,26.37427 -10.53912,40.15322 -0.2505,1.96583 -0.32277,3.95029 -0.48416,5.92543 -0.11621,7.2177 1.22456,14.33732 1.99975,21.48746 0.59941,7.75746 2.2104,15.32354 4.4887,22.74574 2.04708,9.17237 6.98449,17.22055 13.05316,24.28809 1.27281,1.48232 2.64778,2.87377 3.97167,4.31066 5.38865,5.59322 11.28764,10.65942 16.77877,16.14728 1.36313,1.36232 2.80329,2.66025 4.0228,4.15251 1.38414,1.69369 2.50911,3.58359 3.76366,5.37539 7.44281,10.15378 15.55564,19.80074 24.2057,28.94287 2.54183,3.06081 5.86135,5.41223 8.48733,8.38497 3.51814,3.98271 -1.59616,-1.32828 1.59115,1.92944 1.30703,0.69775 1.17324,0.78543 2.94595,0.83224 5.68605,0.15016 3.84941,0.16549 9.53215,-2.50095 0.039,-0.0542 -0.72699,-0.60606 -0.76602,-0.55189 v 0 c 1.4337,-0.50137 2.85475,-1.04048 4.30109,-1.5041 4.18079,-1.34017 5.12153,-0.46978 4.60636,-5.18097 -0.30665,-0.81291 -0.54177,-1.65653 -0.91996,-2.43872 -0.38936,-0.80528 -0.93182,-1.52743 -1.37371,-2.30512 -1.81958,-3.20235 -3.35682,-6.55878 -5.00048,-9.85121 -5.99023,-12.17007 -12.90984,-23.93623 -22.62418,-33.56238 -2.00259,-1.7962 -4.02921,-3.56594 -6.00775,-5.38858 -6.63613,-6.1132 -2.84589,-3.00777 -9.54282,-8.77628 -3.76908,-3.24655 -5.06783,-4.18556 -8.86535,-7.2542 -1.30292,-1.05284 -2.59612,-2.11763 -3.89419,-3.17645 -2.20651,-1.90595 -4.37045,-3.68555 -6.40517,-5.77593 -3.39838,-3.49134 -6.07405,-7.55425 -8.33322,-11.8545 -2.00283,-7.19958 -3.73785,-14.50662 -6.7028,-21.39405 -0.11795,-0.28785 -1.94583,-4.10774 -1.82483,-4.75725 0.21537,-1.15613 4.40822,-5.70376 3.89422,-6.23519 0.90743,-1.73777 1.88681,-3.43983 2.72229,-5.21332 6.32322,-13.42239 9.94984,-27.94442 11.50068,-42.66868 0.18579,-2.74717 0.43959,-5.49059 0.55737,-8.24152 0.40453,-9.44872 6.1e-4,-18.97578 -1.32259,-28.33829 -1.47271,-8.02772 -3.71879,-15.85714 -5.49823,-23.81819 -2.06185,-10.31121 -3.522,-20.80757 -7.02489,-30.76481 -1.63505,-8.08159 -3.51493,-16.11001 -5.85287,-24.02054 -0.95225,-3.39357 -1.87637,-6.80094 -2.89452,-10.17548 -0.58893,-1.95197 -1.40717,-3.83261 -1.94306,-5.7998 -0.20751,-0.76176 -0.27503,-1.5549 -0.41254,-2.33235 -0.50048,-4.24278 -0.96006,-8.52938 0.0626,-12.73904 0.96517,-4.00742 2.18381,-7.9441 3.16623,-11.9467 0.70816,-3.08781 1.37205,-6.20195 1.23945,-9.39272 -0.0225,-3.78719 -0.60936,-7.52489 -1.738,-11.14601 -1.19028,-3.6581 -2.65932,-7.20231 -4.20285,-10.72425 -1.25619,-2.91173 -2.38143,-5.8685 -2.36739,-9.09543 -0.098,-5.85162 0.46044,-11.706852 2.05746,-17.357097 0.82686,-2.571879 1.60273,-5.125725 3.00446,-7.457649 0.23723,-0.394648 0.52075,-0.760052 0.80043,-1.125839 0.18617,-0.243488 0.83134,-0.504119 0.59586,-0.700328 -0.79054,-0.658723 -1.90173,-0.78673 -2.85259,-1.180095 0.85428,0.395338 6.44521,-11.686081 5.59092,-12.081419 z" />
    <path
       style="fill:#ffffff;fill-opacity:1;stroke:none;stroke-width:15;stroke-linecap:round;stroke-linejoin:miter;stroke-dasharray:none;stroke-opacity:1"
       id="path13342"
       d="m 53.959694,299.46956 c 1.022899,-0.45645 2.112467,-0.786 3.068696,-1.36935 5.026656,-3.06651 9.856981,-9.21502 13.699144,-13.71645 0.703469,-0.73445 1.879399,-2.12052 2.872414,-2.67849 0.552751,-0.31058 2.375732,-0.51631 1.899588,-0.0976 -0.810563,0.71272 -3.987937,-0.57433 0.853418,0.86509 5.664997,1.49839 11.561256,1.33101 17.332892,2.05448 3.282618,0.46121 6.331204,1.81151 9.453734,2.84494 3.27059,1.08243 3.25715,1.01488 6.71574,1.90963 10.90987,2.23344 22.09803,1.318 32.99713,-0.387 10.51638,-1.80245 20.66783,-5.05406 30.59335,-8.89563 6.19361,-2.18203 11.78308,-6.20191 18.30606,-7.38264 0.57172,-0.0169 1.1432,-0.0514 1.71517,-0.0506 2.42314,0.003 4.79649,0.15614 7.22334,-0.0291 3.2575,-0.2486 3.82325,-0.43042 7.15971,-1.00087 9.49476,-1.85391 18.46063,-5.58641 27.46077,-9.01651 5.9494,-2.29853 11.99557,-4.43892 18.28876,-5.58182 1.40711,-0.25555 2.816,-0.56526 4.24498,-0.6226 1.72118,-0.0691 3.44124,0.16346 5.16187,0.24518 12.74691,0.57635 25.49812,-0.12886 38.17671,-1.42541 12.11372,-1.42731 23.88391,-4.69124 35.07461,-9.51687 6.50784,-2.80631 9.45542,-4.50132 15.65093,-7.75721 5.68333,-3.08715 11.13219,-6.5987 16.2244,-10.5879 2.24179,-1.75621 4.21321,-3.64688 6.64599,-5.12753 4.24612,-1.14456 8.58332,-1.76943 12.61997,-3.65028 1.39098,-0.64812 2.70665,-1.44694 4.05998,-2.17042 10.53056,-7.04709 18.73504,-17.09888 25.24668,-27.8812 1.90551,-3.15523 3.53998,-6.4664 5.30996,-9.69961 1.50665,-3.46839 3.18252,-6.86809 4.51994,-10.40518 3.847,-10.17419 6.75028,-21.48425 5.7966,-32.45511 -0.10683,-1.22901 -0.41926,-2.43141 -0.62889,-3.64711 -0.24514,-0.67257 -0.3192,-1.43529 -0.73542,-2.0177 -0.1566,-0.21912 -0.52851,-0.13077 -0.79783,-0.12776 -6.37481,0.0713 -12.7633,-0.10223 -19.12242,0.35046 -0.33531,0.0239 0.006,0.67401 0.051,1.00716 0.24405,1.81347 0.46137,2.25222 1.01292,4.13719 1.17694,3.15924 3.76834,9.27854 6.52543,11.17428 3.34487,2.29988 7.38112,2.48327 11.20666,3.14916 0.26445,0.3617 5.37969,-3.37829 5.11523,-3.74 v 0 c 9e-4,-0.005 1.47755,-7.65758 1.41117,-8.46098 -0.1816,-2.19814 -3.35247,-6.71452 -4.48842,-8.83897 -0.27464,-0.40116 -0.96174,-1.38215 -1.22843,-1.84876 -0.17286,-0.30245 -0.12816,-0.90001 -0.47516,-0.93083 -19.18632,-1.70411 -14.97126,-4.68961 -22.04715,1.47596 -0.69361,0.82492 -1.44544,1.60421 -2.08085,2.47476 -7.81366,10.70511 -12.20443,24.28812 -16.85108,36.54153 -1.92912,5.60109 -3.78741,11.22677 -5.76284,16.8117 -1.49547,4.22798 -2.97361,9.08184 -5.75855,12.72622 -0.46313,0.60605 -1.07277,1.08457 -1.60915,1.62686 -0.54759,0.3761 -1.06708,0.79683 -1.64278,1.12831 -3.57448,2.05817 -7.84495,2.61971 -11.66166,4.0564 -3.63009,0.97726 -7.32422,1.78654 -10.92462,2.86621 -6.17615,1.85207 -12.15291,4.29592 -18.06004,6.86315 -14.06419,5.93 -28.23096,11.78659 -42.90107,16.05667 -5.75737,1.15086 -5.72177,1.35241 -11.52682,1.70003 -8.3327,0.49899 -16.75589,-0.26349 -25.00762,1.39009 -2.06719,0.46777 -4.12859,0.96191 -6.20157,1.40333 -1.85527,0.39505 -3.7351,0.67385 -5.58213,1.10585 -7.31623,1.71118 -14.34272,4.44115 -21.13157,7.62907 -7.52462,3.63845 -14.90409,7.58511 -22.57556,10.90916 -2.09378,0.73219 -2.42684,0.92393 -4.5296,1.38314 -3.26048,0.71202 -6.61553,0.77053 -9.89149,1.38641 -7.61919,1.4526 -14.94978,3.92599 -22.08109,6.97284 -8.82747,3.57013 -17.68672,7.1432 -26.93308,9.50023 -4.38781,1.09801 -8.76973,2.12173 -13.23656,2.85427 -1.32889,0.21793 -2.6997,0.22024 -3.99881,0.57486 -0.1668,0.0455 0.16092,0.47783 -0.007,0.51863 -1.1257,0.2734 -2.30678,0.21563 -3.46017,0.32345 -2.48808,0.0481 -3.38613,0.16848 -5.80282,-0.16368 -3.60777,-0.49588 -7.00773,-1.88516 -10.517085,-2.78351 -5.974332,-1.35668 -12.027971,-2.21651 -18.176929,-1.98041 -2.698882,0.13379 -5.407943,-0.0574 -8.106079,0.0907 -4.206938,0.23085 -8.059891,2.42688 -11.451925,4.71907 -1.003315,0.80984 -2.052258,1.56619 -3.009945,2.42951 -3.944415,3.55572 -8.237876,8.73258 -9.674112,13.95562 -0.280844,1.02132 -0.232452,2.10567 -0.348678,3.15851 -0.259863,0.44775 6.072284,4.12277 6.332147,3.67502 z" />
    <path
       style="fill:#ffffff;fill-opacity:1;stroke:none;stroke-width:15;stroke-linecap:round;stroke-linejoin:miter;stroke-dasharray:none;stroke-opacity:1"
       id="path13344"
       d="m 140.35275,141.04308 c 0.20394,0.79615 0.31582,1.62176 0.61183,2.38846 0.73197,1.89586 2.47311,4.82082 3.51494,6.46604 2.26159,3.57138 4.82817,6.87958 7.47833,10.16449 3.40906,4.14613 7.33884,7.80664 11.57756,11.08777 1.05197,0.81431 2.18073,1.52928 3.20501,2.37817 1.16037,0.96167 2.22707,2.03106 3.3406,3.04659 6.97746,5.7541 14.50691,10.7812 21.36895,16.67621 3.90928,3.79224 7.32938,8.23099 9.82266,13.09471 0.64135,1.25112 1.15591,2.56327 1.73386,3.84491 4.38103,8.01035 9.9359,13.55101 17.38606,18.65413 2.77619,1.77848 5.75263,3.20665 8.77011,4.52049 0.92839,0.40423 1.90502,0.70281 2.8034,1.16996 0.96888,0.5038 1.84362,1.17144 2.78001,1.73333 1.02476,0.61491 2.06844,1.19774 3.10266,1.79661 3.6913,2.13793 7.5351,4.2323 10.51489,7.35375 1.49115,1.56203 1.81605,2.27534 2.95564,4.08234 1.15212,2.42896 2.49353,4.83507 3.31317,7.40887 0.35273,1.10761 0.50983,2.27095 0.85706,3.3803 0.74179,2.36988 1.80661,4.68875 2.78355,6.96444 2.615,5.87794 5.83144,11.4459 9.51183,16.71337 2.69739,3.63079 5.93395,6.8113 8.69905,10.38567 2.55861,3.45518 4.32166,7.40071 6.2044,11.24282 2.79895,5.97966 6.36564,11.52001 10.23832,16.84842 4.35953,5.77446 9.38019,10.99199 14.40175,16.18367 2.55931,2.79427 5.46959,5.24145 8.14412,7.91544 1.19474,1.1945 2.25199,2.52509 3.48495,3.68009 3.39431,3.17966 5.26101,4.28332 9.08576,6.96779 7.58192,4.98733 16.08875,8.22298 24.13209,12.33547 0.96675,0.59762 2.57002,1.46648 3.33855,2.38661 0.55419,0.66352 0.91285,1.4686 1.38599,2.19215 0.59488,0.90972 1.20443,1.80983 1.81777,2.7072 2.52883,3.69989 1.94084,2.82664 4.75552,6.555 5.29808,6.75522 11.62638,12.56989 18.63136,17.49935 0.96863,0.58603 1.86504,1.31277 2.90588,1.75809 1.83883,0.78675 6.0217,1.67913 7.96832,1.71221 1.70163,0.0289 3.38937,-0.58782 5.0857,-0.45058 1.37736,0.11143 2.6487,0.78897 3.97305,1.18346 0.30014,0.25814 3.95078,-3.98653 3.65063,-4.24467 v 0 c -0.7488,-0.86632 -1.85861,-1.52154 -2.24642,-2.59895 -0.46073,-1.28 0.051,-2.73376 -0.15696,-4.07817 -0.49116,-3.17512 -2.01538,-6.1788 -4.28876,-8.40996 -5.11308,-5.27937 -10.64853,-10.13158 -15.66129,-15.51224 -2.62285,-2.81307 -5.1434,-5.73596 -7.80173,-8.51402 -0.87934,-0.91893 -1.84675,-1.7519 -2.71124,-2.68481 -0.80999,-0.87409 -1.53818,-1.82058 -2.30728,-2.73088 -0.89216,-0.93398 -1.78432,-1.86797 -2.67649,-2.80196 -1.01272,-0.89781 -1.99023,-1.83699 -3.03817,-2.69343 -6.16533,-5.03868 -13.29008,-8.73518 -20.1917,-12.62793 -1.87975,-0.99411 -6.72833,-3.57326 -8.69315,-4.55533 -1.23123,-0.6154 -2.54711,-1.06987 -3.72528,-1.78159 -2.82295,-1.70532 -5.02791,-4.38788 -7.49351,-6.5219 -4.73175,-4.69821 -9.38568,-9.47677 -13.97991,-14.30912 -3.82399,-4.17415 -7.44949,-8.52378 -10.28791,-13.44772 -2.92352,-4.74483 -5.96383,-9.47351 -10.01836,-13.35008 -2.78074,-2.60593 -6.00167,-4.79641 -8.21819,-7.93906 -2.96623,-4.85715 -4.82069,-10.26142 -7.29496,-15.36947 -1.18423,-2.36891 -2.13179,-4.41911 -3.55581,-6.65715 -0.62734,-0.98595 -1.42206,-1.86002 -2.03275,-2.85637 -1.69954,-2.77283 -2.71024,-5.95208 -4.51496,-8.67186 -1.64145,-2.6733 -2.30337,-3.93721 -4.30701,-6.41663 -3.70339,-4.58279 -8.34733,-8.18771 -13.68396,-10.68507 -1.32525,-0.52034 -2.6244,-1.11283 -3.97576,-1.56103 -1.2317,-0.40851 -2.51609,-0.63894 -3.76106,-1.005 -3.20671,-0.94286 -6.418,-2.07344 -9.2805,-3.8207 -0.67684,-0.51709 -1.38839,-0.99167 -2.03053,-1.55128 -4.72633,-4.11893 -7.97346,-9.64863 -12.18092,-14.24166 -0.94047,-0.99924 -1.95705,-1.93196 -2.8214,-2.99773 -0.74499,-0.91861 -1.33792,-1.95086 -1.99141,-2.93666 -2.78324,-4.19862 -5.43973,-8.49812 -8.67616,-12.3748 -6.36873,-7.51477 -13.56357,-14.28249 -22.33792,-18.93947 -1.40633,-0.68187 -2.84196,-1.30635 -4.21899,-2.04562 -4.9008,-2.63104 -9.12073,-6.25725 -12.29306,-10.83451 -3.86583,-5.6044 -7.5911,-11.97164 -13.22571,-16.01936 -0.86723,-0.623 -1.86223,-1.04544 -2.79334,-1.56816 -0.37665,-0.48527 -7.23941,4.84128 -6.86277,5.32655 z" />
    <path
       style="fill:#ffffff;fill-opacity:1;stroke:none;stroke-width:15;stroke-linecap:round;stroke-linejoin:miter;stroke-dasharray:none;stroke-opacity:1"
       id="path13346"
       d="m 156.52519,130.871 c 0.0726,-3.95311 -0.71879,-7.85625 -0.92227,-11.79492 -0.0679,-1.31441 -0.0473,-2.63191 -0.0709,-3.94786 -0.0793,-1.46928 -0.15868,-2.93856 -0.23802,-4.40784 -0.79405,-7.68125 -0.35303,-3.51482 -1.33446,-12.498097 0.005,-0.783642 -11.07716,-0.857319 -11.08237,-0.07368 v 0 c -1.14109,9.068687 -0.62176,4.785457 -1.57026,12.848197 -0.004,1.74753 -0.13831,3.4997 -0.011,5.24258 0.40374,5.52566 2.01466,11.82193 5.55655,16.21075 0.60032,0.74386 1.36667,1.3368 2.05,2.00521 0.25345,0.539 7.87614,-3.04534 7.62269,-3.58434 z" />
    <path
       style="fill:#ffffff;fill-opacity:1;stroke:none;stroke-width:15;stroke-linecap:round;stroke-linejoin:miter;stroke-dasharray:none;stroke-opacity:1"
       id="path13348"
       d="m 87.139182,137.49731 c 5.147208,0.42122 10.3842,-0.48404 15.506918,0.37164 0.3687,0.0616 0.58958,0.4966 0.94992,0.59601 1.47489,0.40688 2.99958,0.60488 4.49937,0.90732 6.09314,1.75947 11.7465,4.69304 17.58519,7.11985 1.57127,0.65309 3.20617,1.16117 4.73335,1.91159 1.85518,0.9116 3.59438,2.04238 5.39157,3.06356 0.48525,0.45436 6.91078,-6.40814 6.42553,-6.86249 v 0 c -1.57326,-1.2682 -3.2235,-2.44644 -4.71979,-3.80459 -5.55381,-5.04112 -1.36808,-2.42891 -7.43329,-7.07638 -4.76863,-3.65396 -10.13363,-6.22709 -15.90064,-7.88529 -2.04483,-0.42936 -4.05353,-1.1002 -6.13449,-1.28808 -7.8158,-0.70568 -16.498783,-0.25613 -23.186913,4.38338 -0.756405,0.52471 -1.36446,1.23618 -2.046691,1.85427 -0.474413,0.30617 3.855553,7.01539 4.329966,6.70921 z" />
    <path
       style="fill:#ffffff;fill-opacity:1;stroke:none;stroke-width:15;stroke-linecap:round;stroke-linejoin:miter;stroke-dasharray:none;stroke-opacity:1"
       id="path13350"
       d="m 271.37103,159.49287 c -1.00217,0.75805 -2.1235,1.38012 -3.00651,2.27415 -1.05038,1.06347 -1.91042,2.30602 -2.74321,3.54728 -3.2982,4.91584 -5.35941,10.35305 -7.01285,15.9885 -1.23234,4.54345 -2.86205,8.96352 -4.56521,13.3473 -0.92127,2.19971 -1.48156,4.51676 -2.16933,6.79116 -0.32423,1.07222 -0.80091,2.10253 -1.02761,3.19952 -0.63526,3.074 -0.35781,4.47782 -0.19801,7.6027 0.60441,4.00677 2.0925,7.64444 4.72767,10.75328 2.73953,3.23194 2.24689,1.95608 5.26475,4.45385 0.54915,0.4545 0.9972,1.01889 1.49579,1.52834 0.32917,0.52921 0.76157,1.00681 0.98752,1.58764 0.95457,2.45387 0.0878,5.74643 -0.62264,8.08588 -1.25577,4.13512 -2.42634,6.31096 -4.26815,10.37391 -7.08543,14.33005 -15.60435,28.13012 -19.74292,43.72099 -0.87045,3.27918 -1.34642,6.65055 -2.01962,9.97583 -0.3922,3.44746 -0.7844,6.89492 -1.17659,10.34238 -0.30979,1.03689 14.35411,5.41802 14.66391,4.38113 v 0 c 1.85496,-2.79323 3.70992,-5.58645 5.56488,-8.37968 1.79988,-2.81923 3.72032,-5.56503 5.39963,-8.4577 8.41743,-14.49931 13.83374,-30.53717 17.35486,-46.87176 0.40029,-2.57936 0.93001,-5.14193 1.20088,-7.73807 0.82836,-7.93915 0.45054,-16.53519 -4.33624,-23.27886 -0.83307,-1.17365 -1.95284,-2.11477 -2.92927,-3.17215 -0.94266,-0.64463 -1.8566,-1.33341 -2.82798,-1.9339 -0.56345,-0.34832 -1.99316,-0.88017 -2.5619,-1.36715 -1.45613,-1.2468 -1.71498,-3.29489 -2.09918,-5.03652 -0.26295,-1.9096 -0.43133,-3.83302 -0.75271,-5.73366 -0.15233,-0.9009 -0.45895,-1.77325 -0.58136,-2.67869 -0.2397,-1.77301 2.8e-4,-3.62518 0.24464,-5.38 1.25716,-4.27246 4.29328,-7.67242 6.87326,-11.21461 3.54859,-4.79225 6.69997,-9.80241 8.55371,-15.52797 0.44609,-1.37783 0.86947,-2.78188 1.02768,-4.22146 0.12936,-1.17718 -0.11587,-2.3657 -0.1738,-3.54854 0.24135,-0.60416 -8.30275,-4.01727 -8.54409,-3.41312 z" />
    <path
       style="fill:#ffffff;fill-opacity:1;stroke:none;stroke-width:15;stroke-linecap:round;stroke-linejoin:miter;stroke-dasharray:none;stroke-opacity:1"
       id="path13352"
       d="m 143.8655,229.02715 c -0.58384,0.70153 -1.24851,1.34301 -1.75152,2.10459 -3.85988,5.84407 -4.91151,13.07104 -5.42998,19.88678 -0.2418,6.79911 1.29227,11.85104 4.221,17.85637 3.00994,6.31385 5.55425,12.84629 7.91638,19.42655 1.25902,3.92636 2.62592,8.09268 1.91717,12.27748 -0.3993,2.35761 -1.06828,3.45357 -2.05074,5.65341 -2.8731,5.3801 -6.20088,10.49742 -9.05081,15.89128 -2.11367,4.00041 -2.78903,5.57616 -4.7065,9.67825 -2.80215,6.46155 -5.68171,13.0427 -6.72598,20.07139 -0.20644,1.38951 -0.87806,11.46259 -0.93249,12.24208 -0.13826,0.69117 9.63632,2.64638 9.77457,1.95521 v 0 c 4.88135,-11.21047 0.20776,-0.93276 4.9805,-10.34271 2.22302,-4.38289 4.03267,-8.94909 5.9941,-13.4486 0.67002,-1.53704 1.38031,-3.0562 2.07047,-4.58431 4.36463,-9.13698 9.23208,-18.11474 12.23184,-27.82461 0.36036,-1.50656 0.80137,-2.99609 1.0811,-4.51969 1.30003,-7.08092 0.4393,-14.1771 -1.91234,-20.94311 -1.34006,-3.51689 -1.64007,-4.54678 -3.29443,-7.92465 -2.05627,-4.19849 -4.64323,-8.09836 -7.21949,-11.98818 -0.57586,-0.96969 -1.34681,-2.11331 -1.70234,-3.22081 -0.93978,-2.92754 0.45895,-6.13272 0.70395,-9.04174 0.8949,-6.1926 1.95737,-13.34942 0.74067,-19.55117 -0.16835,-0.8581 -0.50526,-1.67434 -0.75789,-2.51151 0.0808,-0.43114 -6.01646,-1.57344 -6.09724,-1.1423 z" />
    <path
       style="fill:#ffffff;fill-opacity:1;stroke:none;stroke-width:15;stroke-linecap:round;stroke-linejoin:miter;stroke-dasharray:none;stroke-opacity:1"
       id="path13354"
       d="m 342.86258,106.00167 c -7.02089,6.16712 -9.74195,15.34542 -11.91692,24.10714 -1.45913,7.66456 -2.38231,15.51203 -1.63118,23.3152 0.14551,1.51161 0.40884,3.00955 0.61325,4.51432 0.77608,13.03374 6.68654,24.76144 12.84167,36.00464 4.96661,8.59605 10.72376,16.69046 16.20995,24.95293 2.89443,4.7384 6.46871,9.2942 8.08973,14.69133 0.28082,0.93496 0.42793,1.90496 0.6419,2.85745 0.75366,7.62758 -0.70045,15.26388 -1.35956,22.85511 -0.84334,9.1121 0.11599,18.17535 1.38719,27.18948 1.31694,8.80091 3.60823,17.56923 7.55973,25.58508 2.28354,4.6323 4.30848,7.32817 7.17341,11.57127 1.86839,2.57251 3.73678,5.14502 5.60517,7.71753 0.37857,0.93249 13.56595,-4.42136 13.18738,-5.35385 v 0 c -0.86519,-2.9572 -1.73037,-5.9144 -2.59556,-8.8716 -0.69641,-2.25739 -2.92955,-9.57753 -3.69248,-11.7107 -2.7048,-7.56271 -6.26361,-14.78148 -9.32174,-22.19914 -1.08114,-3.42659 -1.47229,-4.13411 -1.95206,-7.59337 -0.70475,-5.08131 -0.16031,-10.21645 0.22427,-15.2957 0.49414,-9.09395 0.69213,-18.30248 -1.46845,-27.22241 -1.11704,-3.69285 -1.20223,-4.4079 -2.75724,-7.88548 -2.03974,-4.56163 -4.83388,-8.72421 -7.3467,-13.02561 -4.68675,-8.24819 -8.71263,-16.84637 -12.86092,-25.37291 -5.05243,-10.33346 -9.91675,-20.76288 -15.24075,-30.96077 -0.65718,-2.97991 -0.96174,-3.7903 -1.13461,-6.84556 -0.3028,-5.35178 0.69586,-10.64816 2.09554,-15.78801 2.17825,-7.80243 4.85376,-15.58074 5.40947,-23.71127 0.24926,-0.54875 -7.51122,-4.07385 -7.76049,-3.5251 z" />
    <path
       style="fill:#ffffff;fill-opacity:1;stroke:none;stroke-width:15;stroke-linecap:round;stroke-linejoin:miter;stroke-dasharray:none;stroke-opacity:1"
       id="path13356"
       d="m 299.20544,304.62057 c 7.32078,-1.31583 13.79384,-5.50916 19.09987,-10.60398 1.27218,-1.22155 2.42011,-2.56625 3.63016,-3.84938 7.22284,-8.7332 12.14389,-19.06615 16.58487,-29.41559 1.41356,-3.25238 4.61197,-10.06198 5.12691,-13.55953 0.40764,-2.76881 -0.0309,-5.59723 -0.0464,-8.39585 0.27491,-0.80581 -11.12107,-4.69363 -11.39598,-3.88781 v 0 c -2.00623,2.02528 -4.30066,3.80097 -6.0187,6.07585 -2.31973,3.07159 -4.90232,9.7037 -6.40948,13.24345 -0.74886,1.81179 -1.52649,3.61195 -2.24659,5.43536 -2.71317,6.87019 -4.94919,14.04526 -10.20119,19.50396 -3.29498,3.30139 -2.44809,2.55538 -5.97201,5.67005 -2.77391,2.45177 -5.75982,4.76843 -8.3096,7.46385 -0.53788,0.5686 -0.9891,1.21332 -1.48366,1.81998 -0.74243,0.54036 6.89933,11.04 7.64177,10.49964 z" />
    <path
       style="fill:#ffffff;fill-opacity:1;stroke:none;stroke-width:15;stroke-linecap:round;stroke-linejoin:miter;stroke-dasharray:none;stroke-opacity:1"
       id="path13358"
       d="m 315.02371,309.07228 c 1.00885,0.29873 1.99765,0.67617 3.02653,0.89619 5.81998,1.24456 12.20272,1.53193 18.11438,1.34233 3.81278,-0.12228 7.69391,0.0608 11.4188,-0.76232 4.12871,-0.9123 7.93391,-2.92699 11.90087,-4.39049 4.19045,-1.73605 8.38089,-3.4721 12.57134,-5.20815 1.28161,-0.68891 -8.46114,-18.8136 -9.74275,-18.12469 v 0 c -4.36053,0.79683 -8.72106,1.59366 -13.08159,2.39049 -4.05656,0.52382 -8.18421,0.65155 -12.16967,1.57144 -3.11086,0.71802 -5.97477,2.25421 -8.98717,3.31178 -5.67254,1.99146 -11.68477,3.29334 -17.01953,6.12099 -0.90881,0.28064 3.05999,13.13307 3.96879,12.85243 z" />
    <path
       style="fill:#ffffff;fill-opacity:1;stroke:none;stroke-width:15;stroke-linecap:round;stroke-linejoin:miter;stroke-dasharray:none;stroke-opacity:1"
       id="path13360"
       d="m 284.96478,313.51097 c -0.99377,0.38706 -2.0221,0.69503 -2.98132,1.16118 -4.03721,1.96199 -7.55758,4.82454 -10.98806,7.67085 -3.02522,2.51007 -5.99956,5.08087 -9.00824,7.61074 -8.94017,7.76518 -4.21677,3.43234 -14.04164,13.13729 -0.82588,0.89837 11.87888,12.57811 12.70476,11.67975 v 0 c 11.82429,-8.0059 6.46787,-4.06441 16.18661,-11.66331 6.48897,-5.64313 14.27099,-11.73398 17.13989,-20.22568 0.32402,-0.95907 0.40502,-1.98373 0.60753,-2.97559 0.45221,-0.6802 -9.16732,-7.07544 -9.61953,-6.39523 z" />
    <path
       style="fill:#ffffff;fill-opacity:1;stroke:none;stroke-width:15;stroke-linecap:round;stroke-linejoin:miter;stroke-dasharray:none;stroke-opacity:1"
       id="path13362"
       d="m 171.34747,185.79898 c -0.55623,0.85811 -1.18154,1.6752 -1.6687,2.57431 -2.88519,5.32495 -4.78067,12.34397 -6.61324,18.15894 -2.09539,6.50296 -6.41214,11.85417 -10.08782,17.49645 -0.92913,1.42625 -1.80238,2.88812 -2.70357,4.33218 -1.7154,3.28114 -3.40961,5.8049 -3.89023,9.58634 -0.24606,1.93601 0.0688,3.90257 0.10317,5.85386 -0.24538,0.5182 7.08306,3.98835 7.32843,3.47015 v 0 c 1.80026,-1.08706 3.74811,-1.96067 5.40077,-3.26118 3.02081,-2.37716 4.40679,-5.01654 6.46885,-8.14279 4.51782,-7.87303 8.63581,-15.96987 13.2739,-23.77678 0.67667,-1.30377 1.42082,-2.57468 2.03001,-3.91133 2.83859,-6.22834 4.70592,-13.20475 3.72095,-20.05851 0.16417,-0.94487 -13.19835,-3.26651 -13.36252,-2.32164 z" />
    <path
       style="fill:#ffffff;fill-opacity:1;stroke:none;stroke-width:15;stroke-linecap:round;stroke-linejoin:miter;stroke-dasharray:none;stroke-opacity:1"
       id="path13364"
       d="m 268.30117,200.38454 c 0.61553,0.36935 1.1991,0.79812 1.84659,1.10806 1.01721,0.48692 4.89759,1.86509 5.8158,2.20743 3.36074,1.253 6.6072,2.64901 9.85331,4.17189 7.76144,4.42973 14.69272,10.22524 21.5486,15.91546 0.56398,0.64404 9.67209,-7.3318 9.10811,-7.97584 v 0 c -1.86154,-1.69389 -3.82855,-3.27867 -5.58464,-5.08166 -1.04983,-1.07788 -1.83581,-2.3858 -2.80747,-3.53464 -3.75346,-4.43786 -7.97541,-8.45957 -12.9172,-11.5576 -1.35689,-0.75306 -2.6666,-1.59821 -4.07066,-2.25916 -5.14172,-2.42039 -11.25836,-4.00621 -16.97658,-3.38038 -0.98541,0.10784 -1.93499,0.4318 -2.90249,0.64771 -0.68863,-0.20601 -3.60201,9.53272 -2.91337,9.73873 z" />
    <path
       style="fill:#ffffff;fill-opacity:1;stroke:none;stroke-width:15;stroke-linecap:round;stroke-linejoin:miter;stroke-dasharray:none;stroke-opacity:1"
       id="path13366"
       d="m 210.46228,151.07817 c -0.38443,9.8259 4.93,18.06926 10.19634,25.89725 6.37728,9.11727 14.80337,16.61512 24.658,21.83713 3.04207,1.612 6.14251,3.19549 9.43476,4.2024 3.4646,1.05961 7.12806,1.30213 10.69209,1.9532 3.51149,0.58858 7.02299,1.17717 10.53449,1.76575 0.97434,0.44221 7.22806,-13.33704 6.25372,-13.77925 v 0 c -2.90535,-0.76574 -5.81071,-1.53148 -8.71606,-2.29722 -2.52934,-1.31561 -5.01629,-2.71613 -7.58802,-3.94681 -2.54312,-1.21701 -5.20459,-2.1756 -7.74793,-3.39215 -8.03356,-3.84269 -15.32151,-8.80461 -21.08483,-15.66739 -3.7304,-5.00194 -2.6054,-3.35333 -5.95604,-8.37633 -2.15486,-3.2304 -4.18706,-6.59746 -6.60827,-9.64261 -0.49473,-0.62221 -1.05617,-1.18833 -1.58425,-1.7825 -0.22829,-0.88275 -12.71229,2.34578 -12.484,3.22853 z" />
    <path
       style="fill:#ffffff;fill-opacity:1;stroke:none;stroke-width:15;stroke-linecap:round;stroke-linejoin:miter;stroke-dasharray:none;stroke-opacity:1"
       id="path13368"
       d="m 167.54181,298.06527 c 0.15283,9.98547 4.56228,19.33836 8.68848,28.22898 1.8185,4.46062 4.70746,8.34833 6.85928,12.62807 1.40897,2.80229 2.58437,5.71605 3.87655,8.57407 0.40393,0.92794 13.527,-4.7844 13.12308,-5.71234 v 0 c -1.62031,-2.61874 -3.40865,-5.14069 -4.86091,-7.85622 -1.01582,-1.89942 -4.31433,-10.24708 -5.18366,-12.40836 -1.84906,-4.98124 -2.40678,-6.50793 -4.26459,-11.41952 -1.96688,-5.1999 -3.91362,-10.54812 -7.31128,-15.01832 -0.21098,-0.77265 -11.13793,2.21099 -10.92695,2.98364 z" />
  </g>
</svg>
