<?xml version="1.0" encoding="UTF-8" standalone="no"?>
<!-- Created with Inkscape (http://www.inkscape.org/) -->

<svg
   width="512"
   height="512"
   viewBox="0 0 512 512.00002"
   version="1.1"
   id="svg12082"
   inkscape:version="1.2.1 (9c6d41e410, 2022-07-14, custom)"
   sodipodi:docname="cracks2.svg"
   xmlns:inkscape="http://www.inkscape.org/namespaces/inkscape"
   xmlns:sodipodi="http://sodipodi.sourceforge.net/DTD/sodipodi-0.dtd"
   xmlns="http://www.w3.org/2000/svg"
   xmlns:svg="http://www.w3.org/2000/svg">
  <sodipodi:namedview
     id="namedview12084"
     pagecolor="#ffffff"
     bordercolor="#000000"
     borderopacity="0.25"
     inkscape:showpageshadow="2"
     inkscape:pageopacity="0.0"
     inkscape:pagecheckerboard="true"
     inkscape:deskcolor="#d1d1d1"
     inkscape:document-units="px"
     showgrid="true"
     inkscape:zoom="1.0973349"
     inkscape:cx="308.47465"
     inkscape:cy="267.4662"
     inkscape:window-width="1920"
     inkscape:window-height="1030"
     inkscape:window-x="0"
     inkscape:window-y="0"
     inkscape:window-maximized="1"
     inkscape:current-layer="layer1">
    <inkscape:grid
       type="xygrid"
       id="grid12086"
       spacingx="128"
       spacingy="128" />
  </sodipodi:namedview>
  <defs
     id="defs12079" />
  <g
     inkscape:label="Layer 1"
     inkscape:groupmode="layer"
     id="layer1">
    <path
       style="fill:#ffffff;fill-opacity:1;stroke:none;stroke-width:15;stroke-linecap:round;stroke-linejoin:miter;stroke-dasharray:none;stroke-opacity:1"
       id="path16369"
       d="m 161.536,58.629541 c -6.28201,0.693755 -11.41223,4.569086 -15.7777,8.869511 -4.08046,4.336774 -5.9585,9.981121 -8.11764,15.397299 -0.3342,0.873938 -0.63782,1.760188 -1.00259,2.621813 -1.74053,4.11136 -1.03054,1.711415 -2.49441,6.006725 -0.95318,2.796849 -1.60221,5.653018 -2.23274,8.534201 -0.80198,4.84312 -2.94729,9.19082 -5.15517,13.51407 -6.33624,8.38153 -10.75484,17.9432 -14.73006,27.608 -2.33033,6.25023 -4.42684,12.62276 -5.60832,19.20269 -0.63977,3.56304 -0.69937,5.05342 -1.02476,8.62329 -0.52822,7.89766 0.0211,15.80619 0.54854,23.68696 0.31149,6.79606 1.09841,13.63344 0.32146,20.42951 -0.15539,1.35927 -0.42528,2.70299 -0.63793,4.05449 -1.87473,8.95087 -6.999498,16.60342 -11.408414,24.44955 -1.353707,2.40907 -2.655469,4.84696 -3.983204,7.27044 -5.578057,10.574 -9.598346,21.87348 -11.872032,33.61061 -1.192185,6.15425 -1.310323,8.75557 -1.914386,14.88927 -2.651791,12.66363 -3.028151,25.76957 -1.104618,38.56857 0.280424,1.86592 0.702515,3.70778 1.053772,5.56166 0.726372,3.58078 2.137292,7.01499 2.55402,10.66287 0.279618,2.44767 0.03677,3.807 0.16808,6.30107 0.08357,1.58734 0.265641,3.16796 0.398461,4.75195 2.701325,8.24274 1.646841,3.77928 2.86024,13.4584 0.09304,0.81575 11.629612,-0.50004 11.536571,-1.3158 v 0 c -1.353789,-9.19586 -1.397877,-4.86042 -0.317177,-13.00313 -0.09229,-1.50823 -0.161578,-3.01805 -0.276857,-4.5247 -0.0965,-1.26117 -0.542283,-5.15884 -0.575025,-6.52106 -0.08631,-3.5909 0.679441,-7.12072 0.990819,-10.68129 1.013207,-13.56393 0.713025,-27.15724 0.759482,-40.74907 0.496284,-2.01703 0.921713,-4.05281 1.488853,-6.05107 3.672062,-12.93811 9.483395,-25.17503 13.421435,-38.02858 1.6143,-4.84087 3.23335,-9.68017 4.84475,-14.52201 1.89788,-5.70264 3.91877,-11.41261 5.2183,-17.29206 0.38262,-1.7311 0.63256,-3.48888 0.94884,-5.23332 0.17835,-1.67553 0.41554,-3.34584 0.53504,-5.02659 0.52633,-7.40331 -0.2698,-14.82206 -1.20084,-22.15803 -0.87374,-7.0932 -1.98371,-14.23345 -1.4732,-21.39941 0.15215,-1.14127 0.24852,-2.29138 0.45645,-3.42382 1.32987,-7.24284 4.61799,-13.92595 7.5192,-20.62586 4.11562,-9.48339 8.25703,-19.10823 9.87247,-29.39156 1.54042,-4.81799 2.9783,-9.67874 4.91833,-14.35659 1.07379,-2.657503 2.17874,-5.306627 3.095,-8.024294 2.16502,-6.421502 -0.16289,0.258765 1.70604,-6.053048 0.25257,-0.852989 0.58948,-1.6787 0.88423,-2.518049 1.71782,-4.612493 3.40344,-7.918855 7.37427,-11.019876 2.19152,-1.626326 4.43157,-3.147257 6.70176,-4.661367 0.48473,-0.323294 3.68513,-2.44955 4.24714,-2.90392 0.51948,-0.41999 0.96518,-0.923817 1.44777,-1.385726 0.5093,-0.351025 -4.45494,-7.553744 -4.96425,-7.202719 z" />
    <path
       style="fill:#ffffff;fill-opacity:1;stroke:none;stroke-width:15;stroke-linecap:round;stroke-linejoin:miter;stroke-dasharray:none;stroke-opacity:1"
       id="path16371"
       d="m 98.840693,74.62017 c 1.679787,-0.110714 3.010237,1.103862 4.581527,1.374481 1.60815,0.276967 5.86888,0.475683 7.49505,0.581059 4.05913,0.26303 2.51751,0.113518 6.22435,0.633842 1.73013,0.487499 2.53524,0.545527 3.99793,1.555568 2.23404,1.542699 4.14475,4.969369 5.61217,7.20927 2.53312,4.301154 5.2149,8.672259 6.76905,13.453352 0.30727,0.945268 0.49952,1.924138 0.74928,2.886198 1.22592,6.54452 0.008,13.13967 -0.69914,19.66319 0.089,2.78825 -0.50305,5.57043 -0.3979,8.3574 0.19159,5.07856 1.59331,10.2365 3.89143,14.76032 0.75015,1.47665 1.71892,2.83164 2.57839,4.24746 5.89368,8.06096 13.02635,11.17696 22.13333,14.30994 8.12332,3.77608 16.80509,6.11586 25.32509,8.80287 4.74397,1.51399 9.57911,2.76025 14.17407,4.69885 4.6718,2.12326 6.38143,5.24148 8.31114,9.78362 1.64901,4.37658 2.38999,9.00325 3.44936,13.53685 0.78222,3.34752 1.13853,4.48685 2.06809,7.82129 2.65511,8.9885 5.92487,17.77812 9.47453,26.44688 4.19715,10.11924 9.40629,19.76198 14.71819,29.32687 5.07075,12.66275 13.56528,23.38218 22.40116,33.60001 4.34019,4.75627 8.46197,9.6981 12.57446,14.64947 0.97862,1.17824 2.01408,2.3104 2.95118,3.52192 1.13988,1.47366 2.1839,3.01904 3.27585,4.52857 7.16777,8.79815 16.40706,15.30725 26.2372,20.77602 2.59117,1.64358 7.94081,3.54939 9.73585,6.19334 0.47023,0.69262 2.051,5.06513 2.21883,5.51152 2.57693,7.02883 3.93605,14.40197 5.0457,21.77974 1.17269,6.01033 2.06478,12.26489 4.89316,17.78487 0.77714,1.5167 1.74202,2.92961 2.61303,4.39442 0.2333,2.30211 0.4666,4.60422 0.6999,6.90634 0.14926,0.76604 10.98272,-1.34474 10.83346,-2.11078 v 0 c -0.85295,-2.35645 -1.70591,-4.71289 -2.55886,-7.06934 -0.11094,-1.76201 -0.0758,-3.53934 -0.3328,-5.28604 -0.79006,-5.36976 -4.1661,-10.11721 -4.0321,-15.67428 -0.51834,-8.97991 -0.68952,-17.38827 -4.80451,-25.69077 -0.78722,-1.36754 -1.47324,-2.79854 -2.36165,-4.10261 -0.82291,-1.20789 -1.81935,-2.2883 -2.75642,-3.40994 -2.88571,-3.45411 -6.20907,-6.44554 -9.67066,-9.31174 -7.79478,-6.65415 -15.4699,-13.45241 -23.45558,-19.87934 -1.36317,-1.05502 -2.81896,-2.00015 -4.08951,-3.16506 -1.0436,-0.95682 -1.91187,-2.08992 -2.82354,-3.17319 -3.99223,-4.74368 -7.31295,-9.98991 -10.59552,-15.23444 -6.89141,-11.03813 -13.92382,-22.05115 -22.29327,-32.04565 -5.50023,-8.98812 -10.68893,-18.16623 -15.28341,-27.65491 -3.91325,-8.06449 -7.8956,-16.1264 -10.91833,-24.57868 -2.48481,-7.47666 -4.59339,-15.12896 -8.10072,-22.2157 -0.61829,-1.06387 -1.17527,-2.16582 -1.85487,-3.1916 -2.75722,-4.16177 -6.52515,-7.45016 -11.08005,-9.49585 -4.44278,-1.89442 -8.93182,-3.65807 -12.97186,-6.36746 -8.11148,-4.56308 -16.62874,-8.43907 -25.96026,-9.64359 -4.40746,-1.16904 -9.2252,-2.17723 -12.99925,-4.90679 -2.27378,-1.6445 -2.70618,-2.54519 -4.42195,-4.76584 -0.5886,-1.09026 -1.23926,-2.14923 -1.76579,-3.27078 -1.79189,-3.81679 -2.88533,-7.88135 -3.96225,-11.93934 -0.34114,-1.28545 -0.79782,-2.54711 -1.00868,-3.86024 -0.18619,-1.15951 -0.11747,-2.34579 -0.17621,-3.51869 -0.43361,-7.10796 -0.74329,-14.31709 -2.62116,-21.22012 -0.86612,-2.641532 -1.16875,-3.780691 -2.27984,-6.320097 -1.66571,-3.806983 -3.93388,-7.309109 -5.76121,-11.03513 -2.90481,-5.697783 -5.35911,-10.022932 -11.36626,-12.981082 -1.0941,-0.400401 -2.16074,-0.885824 -3.28231,-1.201204 -5.45315,-1.533397 -11.57512,-1.356711 -17.11209,-0.409012 -0.854712,0.14629 -1.652041,0.527715 -2.478061,0.791572 -0.342395,0.08791 0.900869,4.930106 1.243264,4.842193 z" />
    <path
       style="fill:#ffffff;fill-opacity:1;stroke:none;stroke-width:15;stroke-linecap:round;stroke-linejoin:miter;stroke-dasharray:none;stroke-opacity:1"
       id="path16373"
       d="m 430.20835,451.10216 c 0.35166,-0.70446 0.76281,-1.38225 1.05498,-2.11339 2.6453,-6.61979 3.33987,-15.41551 4.25998,-22.45065 1.5544,-11.10313 2.4695,-22.40661 0.73089,-33.55635 -1.17848,-7.5576 -2.01328,-8.86431 -4.53067,-15.75568 -3.85941,-8.20678 -10.14633,-14.43448 -17.12633,-19.98665 -4.48809,-3.67659 -9.40247,-6.73141 -14.72195,-9.03357 -2.81005,-0.87523 -5.24378,-2.29949 -7.57685,-4.0518 -4.05205,-3.28427 -8.84662,-5.27291 -13.7915,-6.76603 -7.84833,-2.00751 -15.9996,-1.77187 -24.02218,-1.3546 -5.29099,0.35641 -10.63153,0.92276 -15.7608,0.99587 -5.07644,-0.14003 -10.01029,-1.45473 -15.01141,-2.21431 -7.34881,-1.14279 -14.58648,0.35441 -21.79407,1.58787 -7.42795,0.96197 -14.81582,2.0811 -22.1435,3.63771 -10.27087,2.49712 -19.93703,6.90615 -29.60529,11.08282 -10.62319,4.71226 -21.48892,8.84013 -32.32244,13.03504 -10.23273,3.73349 -20.24979,7.9913 -29.93172,12.98001 -8.0318,4.156 -15.31664,9.52715 -22.90496,14.40112 -2.17949,1.30333 -1.85334,1.31233 -4.03655,1.96374 -0.34345,0.10247 -1.40073,0.14087 -1.05186,0.22306 3.861,0.90964 1.85172,-0.77559 4.28703,1.6208 0.11488,-0.0259 0.28602,0.0243 0.34463,-0.0778 0.87152,-1.51883 0.62033,-6.59789 0.46335,-8.32288 -0.41043,-3.29966 -2.45621,-5.35792 -4.68697,-7.61187 -0.0249,-0.26382 -3.75588,0.0887 -3.73095,0.35252 v 0 c -1.30032,2.32865 -2.63814,4.60671 -2.85888,7.32427 -0.45209,4.00166 -1.18866,8.05578 0.0164,12.00373 1.11015,1.95334 2.05488,4.4895 4.48682,5.32844 5.29535,1.82672 10.54513,0.23095 15.48181,-1.62277 8.23601,-3.67515 15.95578,-8.3338 23.99211,-12.4112 9.44435,-4.53895 19.1301,-8.47612 29.01872,-11.94971 11.0771,-4.21805 21.83938,-9.12149 32.29064,-14.72452 8.73086,-4.34527 17.62014,-8.31847 27.07357,-10.84646 6.82282,-2.05612 13.71806,-3.85867 20.59567,-5.72147 2.2419,-0.54207 3.43329,-0.87222 5.6901,-1.25627 0.90744,-0.15442 1.82293,-0.25718 2.73439,-0.38577 0.8751,-0.0794 1.75832,-0.0952 2.62531,-0.23813 0.0831,-0.0137 -0.27736,-0.15576 -0.19339,-0.16278 0.8548,-0.0714 1.71538,-0.024 2.57306,-0.036 5.21806,0.26585 10.25852,1.42281 15.37523,2.41451 7.48486,0.93364 15.03948,0.39944 22.52357,-0.30315 2.27664,-0.20059 4.56684,-0.2654 6.83391,-0.55475 0.19869,-0.0254 0.34686,-0.2309 0.5462,-0.2505 2.89882,-0.28499 5.85431,-0.10118 8.74251,0.18052 4.00758,0.64684 7.97822,1.54194 11.26241,4.07771 2.47596,2.15742 4.82075,4.48056 7.58488,6.2901 4.27351,2.9854 8.644,5.82937 12.92752,8.80052 1.82228,1.34039 4.14073,2.72071 5.32071,4.74318 1.82709,3.13164 1.3713,7.14507 1.77652,10.55982 0.56097,5.86035 0.73236,8.01811 1.47349,14.08218 1.25,10.22775 2.99824,20.40436 3.68062,30.69479 0.25155,11.71202 0.0449,0.0881 0.1187,10.78665 0.0267,3.87301 -0.0129,7.8361 0.8018,11.64654 0.17026,0.79632 0.46131,1.56193 0.69196,2.34289 -0.0426,0.737 10.38016,1.33972 10.42278,0.60272 z" />
    <path
       style="fill:#ffffff;fill-opacity:1;stroke:none;stroke-width:15;stroke-linecap:round;stroke-linejoin:miter;stroke-dasharray:none;stroke-opacity:1"
       id="path16375"
       d="m 427.88658,75.886468 c -5.19002,3.353263 -8.52826,8.823944 -11.85286,13.895336 -3.14041,4.847754 -6.24261,9.725974 -8.93385,14.839786 -1.87743,3.39385 -2.78793,7.18316 -4.36612,10.70022 -1.50174,2.7899 -3.85684,4.84654 -6.43402,6.60859 -4.65663,2.54248 -10.10397,3.05829 -15.27164,3.81473 -10.29474,1.62455 -20.32684,4.53562 -30.10739,8.08478 -8.45776,3.16593 -16.8211,6.81869 -24.27013,11.98988 -1.32328,0.91864 -2.57492,1.9364 -3.86238,2.9046 -5.23764,4.25838 -9.572,9.54428 -11.41071,16.14162 -0.31596,1.13368 -0.47738,2.30485 -0.71607,3.45728 -0.82471,6.36714 -0.0904,12.77686 0.70421,19.10528 0.98433,7.75691 3.1042,15.28564 5.7714,22.61491 2.11382,6.00732 5.98929,11.07058 9.15373,16.51177 1.57129,2.95266 0.34471,3.2837 -2.17036,4.56135 -5.63652,2.64116 -11.56294,4.61966 -17.41245,6.73077 -10.7925,3.60058 -21.16668,8.29621 -31.5212,12.97793 -11.2882,5.31412 -22.3059,11.17123 -33.5295,16.61762 -10.0052,4.6398 -20.12676,9.00844 -30.03447,13.85758 -5.81924,3.04254 -11.62985,6.26683 -16.59943,10.61303 -3.19889,2.79763 -3.96554,3.90886 -6.74638,7.1196 -2.20825,3.03545 -3.96269,5.09851 -5.47188,8.5883 -0.72877,1.68517 -1.13686,3.4916 -1.71129,5.23543 -0.68963,2.09357 -1.38727,4.18449 -2.0809,6.27673 -0.21803,0.63752 8.79788,3.72093 9.01591,3.08341 v 0 c 0.88519,-1.72374 1.60444,-3.54335 2.65557,-5.17122 0.84076,-1.30208 1.99455,-2.37297 2.98537,-3.56483 3.77853,-4.54518 1.46455,-1.94623 5.39122,-6.15371 0.99399,-0.84772 1.94922,-1.74312 2.98197,-2.54316 5.68707,-4.40565 12.31784,-7.40771 18.85,-10.30428 10.24235,-4.39155 20.64222,-8.41161 30.79671,-13.01012 11.41254,-5.21499 22.55516,-10.95771 33.48533,-17.12253 9.65014,-5.18986 19.54076,-9.85242 29.50184,-14.4126 6.58747,-3.12134 13.44363,-6.10686 18.68082,-11.33265 0.64167,-0.80278 1.36102,-1.54922 1.92502,-2.40835 2.64847,-4.03441 3.08934,-8.77075 1.96734,-13.37879 -1.69742,-5.76319 -3.8943,-11.3617 -5.82766,-17.04767 -2.37052,-6.63138 -5.05426,-13.19247 -6.67743,-20.05815 -0.91592,-4.96102 -1.7715,-10.03572 -1.46364,-15.09418 0.13825,-0.58343 0.21446,-1.18514 0.41476,-1.75027 1.53821,-4.33985 6.04571,-6.8714 9.42092,-9.5833 7.83489,-5.33098 15.93717,-10.36598 24.68416,-14.07383 4.51952,-1.64215 5.03844,-1.91463 9.66976,-3.25969 6.29466,-1.82815 12.74767,-3.03961 19.01236,-4.97348 6.0766,-2.0824 12.38223,-3.99337 17.25638,-8.38406 2.94892,-2.88488 5.48063,-6.14465 7.3263,-9.85339 1.75507,-3.22346 3.58633,-6.40618 5.66055,-9.43815 3.1597,-4.65428 6.36683,-9.27515 9.64896,-13.844176 1.84707,-2.616504 1.85763,-2.609387 3.66971,-5.265389 1.66293,-2.437379 3.49214,-4.918524 4.59489,-7.681468 0.25961,-0.650463 0.3837,-1.347134 0.57555,-2.020701 0.3253,-0.518237 -7.00368,-5.118625 -7.32898,-4.600388 z" />
    <path
       style="fill:#ffffff;fill-opacity:1;stroke:none;stroke-width:15;stroke-linecap:round;stroke-linejoin:miter;stroke-dasharray:none;stroke-opacity:1"
       id="path16377"
       d="m 335.67663,141.57517 c 5.17772,-0.022 9.95104,-2.28384 13.90735,-5.49312 0.16917,-0.19073 3.59192,-3.07676 3.09794,-3.45379 -6.64068,-5.06849 -5.3136,-5.59734 -8.27222,-2.7117 -2.61505,3.48656 -4.53999,7.4454 -5.93873,11.55884 -1.47875,4.7675 -1.40802,9.74165 -1.03404,14.66071 0.64588,3.69708 1.02694,7.5152 2.44398,11.02463 0.83183,2.06011 2.00531,3.99733 3.09202,5.92469 2.76009,4.30788 6.2779,8.03258 9.4994,11.9834 0.59993,0.75688 1.74048,2.12575 2.2066,2.98919 0.34308,0.63553 0.53525,1.34321 0.8545,1.99104 1.07565,2.18278 2.40926,4.27231 3.62621,6.37792 2.14366,3.45801 3.68907,7.1936 4.91797,11.05707 0.13628,0.53705 0.3586,1.05936 0.40883,1.61114 0.0597,0.65539 -0.0801,1.31448 -0.0826,1.97258 -0.0128,3.38109 0.21814,6.78887 0.35651,10.16663 0.16249,6.52868 0.48579,13.05111 0.61446,19.58044 -1.39042,10.38797 -0.44282,20.89301 0.91571,31.22827 1.30652,8.00754 2.87261,15.96685 4.01087,24.00118 0.86649,6.27771 1.33212,12.59265 1.13526,18.9269 -0.23548,7.17594 -2.18698,14.08425 -4.09498,20.95235 -1.89247,6.91835 -3.74497,13.97531 -3.95623,21.1903 -0.0403,1.37583 0.0645,2.75209 0.0967,4.12813 0.50904,3.64099 1.0071,7.76031 3.34688,10.80103 1.11524,1.44934 2.58138,2.59113 3.87207,3.8867 0.0513,0.4357 6.21302,-0.29007 6.1617,-0.72577 v 0 c 0.91658,-1.36723 1.95198,-2.6619 2.74975,-4.10169 1.52776,-2.75726 1.92649,-6.02554 2.53638,-9.05522 1.06907,-7.32933 2.08247,-14.67248 4.29384,-21.77303 2.26074,-8.41217 4.30312,-16.97452 3.63007,-25.76136 -0.53864,-6.61514 -1.37572,-13.20854 -1.53737,-19.85025 -0.34517,-8.1646 -0.98303,-16.30883 -1.49597,-24.46386 -0.80782,-10.2053 -1.48895,-20.52295 -4.17108,-30.44398 -0.82116,-6.61426 -1.50907,-13.24511 -2.48738,-19.83917 -0.57997,-3.68146 -1.13721,-7.45411 -2.29069,-11.01161 -0.25579,-0.78888 -0.64871,-1.52957 -0.89374,-2.32186 -0.206,-0.66609 -0.30377,-1.36094 -0.45566,-2.04142 -1.2278,-4.9426 -2.86894,-9.79581 -5.56667,-14.15192 -1.47944,-2.2515 -2.96626,-4.54386 -4.80665,-6.52733 -0.53959,-0.58153 -1.18833,-1.05539 -1.72516,-1.63948 -0.66571,-0.72433 -1.73654,-2.32198 -2.29256,-3.12104 -2.68744,-3.84005 -5.3126,-7.72693 -7.8258,-11.68302 -1.45841,-2.23175 -2.81107,-4.51816 -4.22799,-6.7759 -0.39903,-0.63582 -0.88444,-1.22367 -1.20518,-1.90237 -0.37812,-0.80009 -0.73565,-2.71562 -0.91848,-3.57258 -0.56164,-3.73235 -0.2389,-7.32495 0.90814,-10.94074 0.86651,-3.10055 1.31314,-6.36444 2.85334,-9.2259 1.37519,-2.88826 0.0774,0.28138 -5.42118,-5.63246 -0.16677,-0.17937 0.35712,-0.41142 0.33272,-0.65513 -0.0134,-0.13356 -0.26296,0.0597 -0.38725,0.11041 -1.9273,0.78591 0.64069,-0.0798 -2.01914,0.75364 -4.34979,1.30208 -8.84915,2.83422 -12.34674,5.81837 -0.437,0.25345 3.14723,6.43358 3.58423,6.18014 z" />
    <path
       style="fill:#ffffff;fill-opacity:1;stroke:none;stroke-width:15;stroke-linecap:round;stroke-linejoin:miter;stroke-dasharray:none;stroke-opacity:1"
       id="path16379"
       d="m 124.21863,196.83725 c 3.50065,-1.41568 6.39418,-3.87642 9.43315,-6.04731 0.75029,-0.53597 1.46249,-1.13455 2.26693,-1.58519 0.88438,-0.49542 1.85113,-0.82679 2.7767,-1.24019 3.17115,-1.41228 6.33401,-3.04973 9.78553,-3.67053 0.58482,-0.10519 1.21084,2e-4 1.77183,-0.19565 0.41031,-0.14324 -0.86892,0.0214 -1.30338,0.0321 3.39914,-0.12377 4.05752,2.98812 4.98321,5.68071 2.30471,7.89308 2.20321,16.1829 2.23756,24.32729 0.0262,1.86334 0.0412,3.72686 0.0786,5.59 0.0799,3.98314 0.15317,7.52873 0.4957,11.50192 0.60562,7.02492 0.56094,4.23423 1.53483,11.10223 0.29009,2.04581 0.49852,4.10237 0.74778,6.15355 1.87256,10.84283 6.35102,20.88419 11.29711,30.61861 1.79669,3.31035 3.67777,6.58335 5.76237,9.72275 0.63786,0.96062 1.36562,1.86113 1.97594,2.83949 6.44168,10.32613 -2.83399,-3.66242 4.25326,6.87743 4.23937,6.02887 9.37888,11.33361 14.44041,16.66292 1.52316,1.87179 3.47363,3.47708 4.79602,5.51633 0.45308,0.69869 0.76828,1.4777 1.15798,2.21362 0.50396,0.95168 2.16959,4.04479 2.66158,4.95956 2.50995,4.50689 4.51056,9.24525 6.28456,14.07945 0.18762,0.54308 1.46246,4.1791 1.5754,4.72562 0.4575,2.21394 0.51948,4.49191 0.83286,6.73079 0.36718,2.62313 0.90492,5.94506 1.31537,8.54159 1.32059,9.87189 3.58227,19.5435 6.60317,29.02287 2.37671,7.03895 5.66528,13.70891 10.48434,19.41553 1.44112,1.70655 2.86825,3.46065 4.59562,4.87675 2.31797,1.90026 4.97737,3.34091 7.46605,5.01136 0.52583,0.64218 9.60766,-6.7941 9.08184,-7.43628 v 0 c -1.21966,-1.81207 -2.50111,-3.58403 -3.65896,-5.4362 -2.61631,-4.18517 -4.46169,-8.71167 -6.54344,-13.16646 -0.63487,-1.35856 -1.33646,-2.68604 -1.94389,-4.05709 -0.5839,-1.31792 -1.08565,-2.67074 -1.62848,-4.00611 -0.45057,-1.37149 -0.946,-2.72905 -1.35173,-4.11448 -2.24016,-7.64931 -3.0645,-15.61802 -4.98015,-23.34274 -0.97916,-3.69622 -1.38946,-5.60655 -2.70066,-9.16883 -2.11642,-5.74993 -0.92825,-1.95591 -3.19864,-7.00524 -0.4065,-0.90406 -1.30233,-3.61453 -1.62792,-4.57379 -1.73813,-5.71668 -3.28953,-11.54343 -6.19747,-16.8096 -1.50661,-2.51075 -1.92777,-3.38428 -3.716,-5.69082 -0.63121,-0.81416 -1.36505,-1.54471 -2.0031,-2.35351 -1.57347,-1.99455 -2.88626,-4.19472 -4.40219,-6.23119 -4.07026,-5.96285 -8.08927,-11.99451 -12.96339,-17.34712 -0.88445,-0.9652 -1.7465,-1.95141 -2.65335,-2.89559 -0.79802,-0.83089 -1.71642,-1.54772 -2.45965,-2.42796 -2.51226,-2.97531 -3.99336,-7.16665 -5.38887,-10.72932 -3.16338,-9.26128 -5.71355,-18.7191 -8.47965,-28.10374 -0.48531,-1.67662 -1.12702,-3.31567 -1.45593,-5.02984 -0.30603,-1.59488 -0.31731,-3.23268 -0.44019,-4.852 -0.57447,-7.57082 -0.76915,-15.17918 -1.87248,-22.7034 -1.5916,-9.61638 -3.59889,-19.30437 -8.51328,-27.85389 -3.5365,-5.50981 -6.77482,-9.72884 -13.43606,-11.38745 -1.83857,-0.0389 -3.67721,-0.15879 -5.51572,-0.11687 -5.61097,0.12795 -10.95077,2.48046 -15.64689,5.36419 -4.91365,3.7791 -10.63395,7.04205 -13.25691,12.95265 -0.35773,0.46971 6.28499,5.52878 6.64272,5.05907 z" />
    <path
       style="fill:#ffffff;fill-opacity:1;stroke:none;stroke-width:15;stroke-linecap:round;stroke-linejoin:miter;stroke-dasharray:none;stroke-opacity:1"
       id="path16381"
       d="m 218.25905,216.26585 c -5.83537,2.71563 -10.61728,7.34303 -14.31805,12.55771 -0.81924,1.15437 -1.51914,2.38896 -2.27871,3.58344 -3.52125,5.81989 -4.92946,12.31098 -5.25592,19.01799 0.0861,3.59539 0.0419,7.12173 -0.83688,10.61676 -1.3,3.86474 -3.05439,7.50048 -4.06753,11.46034 -0.82029,4.75251 -0.44408,9.75756 1.40971,14.2497 0.38741,0.93879 0.91736,1.81222 1.37604,2.71833 0.55451,0.65536 3.29501,4.08373 4.21922,4.43498 1.58326,0.60173 3.35581,0.46224 5.03372,0.69336 0.17356,0.22401 3.34145,-2.23063 3.16788,-2.45463 v 0 c 0.4505,-0.9978 1.15632,-1.91616 1.35149,-2.99341 0.0295,-0.16286 -0.87803,-4.49612 -0.89085,-4.55848 -0.28067,-0.70191 -0.5399,-1.41278 -0.84201,-2.10574 -1.02874,-2.35966 -2.47984,-4.40922 -1.71232,-7.0881 1.12519,-4.06693 2.49112,-8.04735 3.55683,-12.12716 0.7122,-3.88589 0.9743,-7.81344 1.40247,-11.73603 0.21891,-1.26073 0.38739,-2.45925 0.76336,-3.68837 1.01396,-3.31488 2.93708,-6.24984 4.87705,-9.08222 3.85935,-5.37302 8.09124,-10.61389 10.94574,-16.60733 0.48728,-0.5587 -7.41396,-7.44984 -7.90124,-6.89114 z" />
    <path
       style="fill:#ffffff;fill-opacity:1;stroke:none;stroke-width:15;stroke-linecap:round;stroke-linejoin:miter;stroke-dasharray:none;stroke-opacity:1"
       id="path16383"
       d="m 207.28468,375.42478 c 2.46189,-5.61998 1.25419,-11.76613 -0.36239,-17.43619 -2.04266,-5.91734 -5.55271,-11.1199 -9.4837,-15.93081 -3.40392,-4.0381 -7.41411,-7.47564 -11.77077,-10.43619 -1.96565,-1.32848 -4.07478,-2.36917 -6.36659,-2.97871 -0.26239,0.1408 -0.36607,-0.0161 -0.69622,-0.41379 0.71092,0.072 1.0459,-1.1776 1.33709,-1.79285 1.38318,-3.06811 2.26455,-6.30581 2.97954,-9.58347 0.55549,-2.92899 0.88494,-5.89339 1.25583,-8.84969 0.1844,-2.23471 0.11906,-4.50554 -0.15025,-6.73019 -0.54922,-3.33932 -2.49789,-6.04967 -4.52048,-8.6583 -1.26604,-1.73903 -2.91792,-3.14487 -4.31687,-4.76394 -0.63222,-0.7317 -1.17454,-1.53789 -1.80567,-2.27052 -1.63215,-1.89461 -2.9143,-3.09644 -4.6936,-4.86237 -3.55691,-3.45641 -7.25808,-6.76447 -10.74905,-10.28831 -2.09063,-1.98763 -3.44657,-4.54956 -5.03172,-6.93246 -0.96227,-1.51513 -2.13489,-2.9998 -2.60173,-4.76281 0.0586,-1.45976 1.71525,-3.49536 2.46232,-4.73615 2.24939,-3.45775 3.80546,-7.18141 4.64207,-11.20803 0.24575,-2.02049 0.27388,-4.10763 -0.38835,-6.05745 -0.19492,-0.5739 -0.0682,-0.51784 -0.45416,-0.45112 -0.3454,-0.13138 -0.48205,-0.0998 -0.51551,-0.62633 -0.0418,-0.65806 0.41687,-1.76824 0.56582,-2.28477 1.46567,-5.08273 -0.61723,1.73829 1.17154,-4.03305 0.26332,-0.96324 0.52664,-1.92648 0.78996,-2.88972 0.12882,-0.29118 -3.98904,-2.11296 -4.11786,-1.82178 v 0 c -0.6652,0.75326 -1.3304,1.50651 -1.9956,2.25976 -2.46737,2.75394 -5.45425,5.21768 -6.93213,8.6945 -0.31206,1.33489 -0.32665,2.64139 -1.17963,3.74847 -1.74534,3.1327 -3.61998,6.20585 -4.87967,9.5828 -1.37979,3.74803 -2.47974,7.59395 -2.0277,11.63573 0.47325,3.40338 1.46659,6.6328 3.36912,9.53415 0.91595,1.34091 1.84949,2.65789 2.90387,3.89571 0.28395,0.33334 0.62506,0.61906 0.88141,0.97406 0.25356,0.35113 0.98187,1.93635 1.11984,2.22642 2.50313,5.33281 5.63017,10.27921 10.02833,14.28422 0.95906,0.83005 1.88431,1.70086 2.87719,2.49014 3.19576,2.54041 6.88695,4.3299 10.16442,6.75797 1.07665,0.80625 2.27035,1.52695 3.03235,2.66028 0.59728,1.08259 -0.0109,1.94598 -0.16591,3.13745 -0.42486,2.63327 -0.92424,5.25654 -1.46468,7.86816 -0.82931,3.29282 -2.08154,6.46705 -2.69345,9.81457 -0.40094,3.75727 -0.13555,7.48316 2.36712,10.52487 1.16333,1.18565 2.45118,2.18725 3.90037,3.01009 1.21867,0.552 2.44594,1.07452 3.41346,2.0419 3.3584,3.06715 6.57177,6.28959 9.82773,9.4641 3.17852,3.36726 6.20585,6.7689 7.11975,11.46738 1.05076,4.96686 1.14366,10.24598 3.38931,14.87071 0.0102,0.69051 9.77546,0.54607 9.76525,-0.14444 z" />
    <path
       style="fill:#ffffff;fill-opacity:1;stroke:none;stroke-width:15;stroke-linecap:round;stroke-linejoin:miter;stroke-dasharray:none;stroke-opacity:1"
       id="path16385"
       d="m 161.98838,206.63681 c 2.20359,4.88894 6.68015,8.16827 11.60191,10.05558 1.09918,0.42149 2.24946,0.6952 3.37419,1.04279 6.57903,1.60212 13.31666,0.59343 19.90695,-0.33665 3.0581,-0.43948 6.0844,-1.04591 9.15323,-1.4122 -5.17694,-0.38999 0.15198,0.0226 -0.0182,-0.64553 -0.10125,-0.39755 -0.66322,-0.48625 -1.02035,-0.68812 -0.0715,0.85585 0.75426,2.24111 1.10686,2.91532 1.21973,2.33219 2.71546,4.45839 4.24549,6.59218 2.87743,3.77153 6.27202,7.15151 10.25974,9.74863 2.6445,1.72232 3.63726,2.06051 6.46513,3.36855 5.28009,2.10506 10.9464,2.67329 16.51965,3.48929 4.57924,0.86629 9.07474,2.06347 13.69637,2.69945 3.33552,0.31831 6.71407,0.25245 10.04742,-0.0795 1.77218,-0.17646 3.58282,-1.00177 5.22021,-1.64824 2.0231,-0.96681 4.0542,-1.83927 6.28101,-2.16907 1.41313,0.48598 0.90133,0.22801 -2.08381,0.33539 -0.12633,0.005 0.27701,-0.0413 0.37756,0.0353 0.44854,0.34167 0.73027,0.69718 1.12467,1.12331 2.56467,3.27162 5.8369,5.66884 9.34523,7.81907 5.1,2.71405 10.65466,2.40947 16.23906,2.32331 -0.59433,-0.0137 -1.19892,0.0695 -1.78301,-0.0412 -0.41223,-0.0782 0.8383,-0.0382 1.25739,-0.0584 1.57402,-0.0761 1.90342,0.12019 3.31088,0.84579 2.831,1.5927 5.75068,2.92712 8.85985,3.86829 2.25685,0.54346 4.58733,0.66504 6.75994,1.51997 1.93013,0.93949 3.1452,2.80653 4.44548,4.44092 1.96051,2.39645 3.05331,5.25237 4.33052,8.02498 1.20463,2.19738 3.41831,6.08091 6.38132,6.0741 2.14077,-0.005 5.63997,-1.81147 7.45401,-2.61854 0.19321,-0.088 -1.05129,-2.8204 -1.2445,-2.7324 v 0 c -0.0226,-0.28549 -0.19488,-0.5999 -0.0677,-0.85647 0.28722,-0.57925 0.82384,-0.9967 1.23427,-1.49627 0.13345,-0.16244 0.36267,-0.28241 0.39737,-0.48976 0.088,-0.52551 -1.60545,-2.42504 -1.4245,-2.86765 -1.69718,-3.44167 -3.3057,-6.97401 -5.67451,-10.01964 -2.30008,-3.07444 -4.91963,-5.96621 -8.19035,-8.03242 -2.88445,-1.47933 -5.92444,-2.53357 -9.21108,-2.4941 -2.441,-0.006 -4.2406,-1.54111 -6.27962,-2.73252 -4.67111,-2.29644 -8.62008,-3.35441 -13.93029,-2.94597 0.58122,-0.0126 1.16418,0.009 1.74365,-0.0377 0.46712,-0.0377 -0.93724,0.0114 -1.40588,0.0105 -1.77178,-0.003 -3.551,-0.084 -5.27133,-0.54962 -0.3973,-0.10022 -0.81306,-0.14453 -1.19189,-0.30066 -2.36252,-0.97372 -4.01716,-3.22977 -5.89422,-4.8399 -4.43926,-4.04081 -8.43979,-6.16493 -14.76265,-4.41824 -2.41262,0.6329 -4.67833,1.63504 -7.06194,2.34449 -0.91137,0.11281 -0.85222,0.14026 -1.82035,0.10501 -0.40548,-0.0148 -1.60395,0.0335 -1.21458,-0.0806 0.59888,-0.17553 1.33895,0.2184 1.86892,-0.11114 0.95937,-0.59653 -4.54077,0.57293 -3.38601,-0.14501 -4.43385,-0.47316 -8.75634,-1.4971 -13.08254,-2.56082 -4.54489,-0.95256 -9.19507,-1.46269 -13.62814,-2.87734 -5.10206,-2.06032 -9.15615,-5.18074 -13.06381,-9.03419 -3.01261,-2.92105 -5.99701,-5.87216 -9.09112,-8.70763 -3.72209,-2.77432 -5.42948,-3.02563 -10.23207,-3.03832 -3.57584,-0.30295 -7.17537,-0.60257 -10.76366,-0.36999 -0.23066,0.014 -4.09479,0.24978 -4.32815,0.25985 -0.7052,0.0304 -1.42212,-0.0686 -2.11684,0.0564 -0.54696,0.0984 2.1822,-0.18387 1.66703,0.0246 -0.42899,0.17355 -3.24554,0.01 -3.70644,-0.009 -4.07491,-0.69445 -6.19626,-2.38483 -9.79639,-4.06252 -0.58471,-0.27248 -1.20558,-0.45948 -1.80836,-0.68921 -0.50021,-0.71567 -10.62126,6.35832 -10.12106,7.07398 z" />
    <path
       style="fill:#ffffff;fill-opacity:1;stroke:none;stroke-width:15;stroke-linecap:round;stroke-linejoin:miter;stroke-dasharray:none;stroke-opacity:1"
       id="path16387"
       d="m 345.35106,299.91799 c 1.16438,-0.44472 2.36279,-0.80892 3.49313,-1.33417 5.13687,-2.38702 9.82115,-5.71426 14.44965,-8.93782 3.25397,-2.26626 6.47722,-4.57635 9.72366,-6.85337 1.46456,-0.94502 2.90524,-1.92813 4.39369,-2.83507 3.05833,-1.86349 4.7331,-2.74448 7.98313,-4.13361 6.23526,-2.66509 1.48096,-0.41443 7.87233,-2.89265 1.35501,-0.5254 2.66884,-1.15139 4.00325,-1.72708 1.32551,-0.72915 2.65103,-1.45829 3.97654,-2.18744 1.16993,-1.14014 2.14898,-2.51661 3.50978,-3.42043 1.62713,-1.08071 3.54968,-1.63145 5.32453,-2.44717 0.50278,-0.36156 -4.61043,-7.472 -5.11321,-7.11044 v 0 c -1.65452,0.81129 -3.18216,1.96242 -4.96355,2.43388 -3.06029,0.80993 -6.47748,-0.57127 -9.4294,1.13089 -9.99985,2.4687 -19.86141,5.83125 -28.80437,11.01623 -1.81831,1.16148 -3.68858,2.24537 -5.45494,3.48442 -6.32121,4.43416 -12.65231,9.8951 -16.75979,16.52731 -0.61805,0.99796 -1.0344,2.10753 -1.5516,3.16129 -0.43312,0.51952 6.91405,6.64475 7.34717,6.12523 z" />
    <path
       style="fill:#ffffff;fill-opacity:1;stroke:none;stroke-width:15;stroke-linecap:round;stroke-linejoin:miter;stroke-dasharray:none;stroke-opacity:1"
       id="path16389"
       d="m 328.17362,267.5125 c -1.6906,4.29888 -0.95802,8.97996 -1.43879,13.46555 -0.43454,2.49994 -2.30421,3.7616 -4.05298,5.37873 -1.91198,1.76806 -2.93893,2.96198 -4.72257,4.89501 -4.12479,4.9152 -8.25898,9.78235 -12.91494,14.20437 -2.61035,2.78821 -6.01485,4.64036 -8.68919,7.34436 -1.84747,1.86796 -1.85552,2.1354 -3.21266,4.29757 -2.5177,5.43742 -1.81189,9.43999 2.39069,13.62031 1.08635,1.07715 2.35869,1.87469 3.65756,2.65957 0.59645,0.36042 1.12244,0.87858 1.78906,1.08175 8.91412,2.71695 -2.29319,-2.12249 6.34126,1.88163 0.20647,0.24478 3.66817,-2.67524 3.46169,-2.92002 v 0 c -3.76871,-7.3153 0.78803,2.41438 -1.41425,-5.46295 -0.21029,-0.75219 -0.80839,-1.33847 -1.26313,-1.97347 -1.0258,-1.43242 -2.173,-2.64182 -3.70775,-3.52096 -0.0225,-0.0112 -0.90538,-0.71754 -1.07972,-0.16685 -0.0923,0.29168 4.7e-4,0.61273 -0.0269,0.91745 -0.03,0.33326 -0.11262,0.66027 -0.14488,0.99332 -0.0131,0.13518 -0.12569,0.39161 0.009,0.40733 0.22156,0.0258 0.38462,-0.22601 0.57693,-0.33902 4.28492,-2.98858 8.05796,-6.57984 12.10736,-9.86771 5.18726,-4.68817 10.32138,-9.49289 14.69061,-14.97122 1.73276,-2.36641 2.67559,-3.49023 4.08459,-6.04634 0.5275,-0.95694 0.93129,-1.9773 1.4225,-2.95337 1.23168,-2.44744 2.60624,-4.83161 3.26106,-7.5257 1.24336,-5.34472 1.93143,-10.97283 -0.45921,-16.12383 -0.0512,-0.75417 -10.71675,-0.0297 -10.66552,0.72449 z" />
    <path
       style="fill:#ffffff;fill-opacity:1;stroke:none;stroke-width:15;stroke-linecap:round;stroke-linejoin:miter;stroke-dasharray:none;stroke-opacity:1"
       id="path16391"
       d="m 350.70932,335.60165 c 1.02522,-6.17684 -0.1285,-12.47685 -1.00125,-18.61009 -0.65903,-3.84286 -1.19939,-7.70284 -1.58992,-11.58183 -0.0943,-3.3808 -1.05499,-6.574 -2.05032,-9.77102 -1.11411,-2.58283 -2.50485,-5.09178 -4.30762,-7.26169 -0.12255,-0.0846 -0.24552,-0.33881 -0.36767,-0.25366 -0.1444,0.10065 -0.0192,0.35153 -0.0251,0.52744 -0.13,3.89213 0.12918,-0.24444 -0.32133,2.81793 -0.006,0.0406 0.0891,-0.0208 0.10948,-0.0565 0.19111,-0.33349 0.34288,-0.68803 0.51432,-1.03205 0.92079,-2.33961 2.02526,-4.58538 2.7826,-6.98671 1.03499,-3.4499 1.02801,-6.88227 -0.60729,-10.16086 -0.36993,-0.74167 -0.88008,-1.40467 -1.32012,-2.10701 -1.67753,-2.31221 -4.35084,-3.63664 -5.99573,-5.95809 -1.04089,-1.80931 -1.25308,-3.94083 -1.53922,-5.97214 -0.26133,-2.37755 -0.80081,-4.70217 -1.56987,-6.96332 -0.97649,-2.2201 -1.69195,-4.53144 -2.57159,-6.79356 -1.15589,-3.32976 -2.51989,-6.55892 -4.14159,-9.68712 -0.36839,-0.62104 -0.75043,-1.2342 -1.10518,-1.86314 -1.35974,-2.41069 -0.94702,-2.0023 -2.55347,-4.33923 -1.34926,-1.9628 -2.90385,-3.74823 -4.47611,-5.53068 -1.99702,-2.23499 -3.99702,-4.46115 -5.95312,-6.73239 -2.08719,-2.21367 -4.79503,-3.42532 -7.64036,-4.33016 -2.4188,-0.62481 -4.79973,-1.35301 -7.18526,-2.08185 -0.2214,-0.0807 -2.23157,-0.74523 -2.35762,-0.59328 -0.20502,0.24715 0.14329,0.62825 0.25825,0.92808 0.13467,1.72454 0.57007,-1.75993 0.58217,-1.83848 0.23557,-2.15208 0.45199,-4.30206 0.78452,-6.4425 0.65269,-3.02489 0.75635,-5.95249 -9.6e-4,-8.95812 -0.95436,-2.99167 -3.01635,-5.05468 -5.86676,-6.24108 -0.65081,-0.32664 -1.35678,-0.27376 -2.03667,-0.44093 -0.0935,-0.0211 -0.19534,-0.0193 -0.28053,-0.0632 -0.57208,-0.295 -1.42817,-1.00931 -2.08187,-1.03803 -1.54633,-0.0679 -3.08966,0.19502 -4.63587,0.26589 -0.29163,0.0134 -0.18227,-0.0575 -0.0968,-0.20596 1.02703,-0.058 2.05249,-0.16167 3.08108,-0.17403 0.79433,-0.01 2.79292,2.95749 2.85536,3.09336 0.27039,0.58834 0.2613,1.26836 0.39195,1.90255 0.031,0.31573 -0.0415,0.65981 0.0929,0.94719 0.17517,0.3746 0.84431,-0.0882 1.20699,-0.28691 1.817,-0.99552 3.51048,-2.25586 5.20832,-3.43266 2.54433,-2.04029 5.43543,-3.77347 7.68576,-6.16711 0.75572,-0.80383 1.6847,-1.56926 2.02363,-2.6192 0.42751,-1.32436 -0.0471,-2.7967 0.16849,-4.17154 0.18213,-1.16155 0.67684,-2.25197 1.01526,-3.37795 0.21038,-0.26025 -3.47016,-3.23539 -3.68053,-2.97513 v 0 c -4.97271,1.25519 -2.25646,0.87728 -8.18523,0.83046 -3.58433,0.78609 -8.29702,6.46669 -10.70546,9.16314 -2.6107,3.42144 -5.29347,6.97546 -5.77546,11.38707 0.11374,0.85528 0.0301,1.76108 0.34122,2.56584 0.34326,0.8878 0.96167,1.65354 1.57241,2.38362 1.73016,2.06826 4.30622,1.64296 6.69374,1.43711 2.50924,-0.83015 0.97295,-0.0194 -3.03769,-0.28812 -0.3925,-0.0263 -1.82116,-1.26474 -1.32196,-0.67203 0.98635,1.05869 2.2034,1.81837 3.5764,2.27858 2.08382,0.53057 -0.15026,-0.63519 -0.37183,-1.92039 -0.003,1.67316 0.0617,3.36374 -0.30993,5.00848 -0.49196,2.72176 -0.8989,5.49875 -0.50545,8.26265 0.26372,1.93893 0.68186,3.85105 1.1263,5.75557 1.19538,2.80451 2.94888,4.99319 5.739,6.38413 2.56733,1.17466 5.30927,1.77021 8.02499,2.51177 1.21953,0.33608 2.46489,0.56491 3.67208,0.94333 0.96945,0.42689 2.70895,5.38611 3.53004,6.34531 1.29248,2.08725 2.61362,4.08801 4.22812,5.94724 2.78569,3.20798 0.50372,0.43061 3.17191,3.23634 0.34898,0.36697 0.64974,0.77695 0.97461,1.16543 1.84748,2.47135 2.88476,5.30059 3.97296,8.16759 1.00204,2.10285 2.10711,4.12078 3.6081,5.91475 0.66075,1.03504 -0.215,3.10561 0.13189,4.26214 0.14372,4.09307 0.78012,8.13165 2.98359,11.67801 1.08206,1.48068 4.78785,6.21983 6.9541,5.91275 0.008,-0.0418 0.15227,-0.60917 0.025,-0.67631 -0.11478,-0.0605 -0.11018,0.1834 -0.24327,0.9498 -0.24236,1.39565 -0.14119,0.87385 -0.55814,2.3973 -0.11753,0.46942 -1.53438,6.48236 -0.70565,6.33332 0.62432,-0.82863 -0.44109,1.29698 -0.53814,1.84687 -0.26753,1.51586 -0.14537,2.02497 -0.008,3.38262 0.0295,0.29122 0.059,0.58245 0.0885,0.87367 0.67799,2.87048 1.98452,5.56395 3.78459,7.90383 1.55914,1.60183 1.80225,2.84784 1.71896,5.09616 -0.17801,4.03762 -0.92781,8.02742 -1.03003,12.07259 -0.016,6.88509 0.33971,14.04543 3.99158,20.099 0.16425,0.84745 12.14901,-1.47544 11.98475,-2.32289 z" />
    <path
       style="fill:#ffffff;fill-opacity:1;stroke:none;stroke-width:15;stroke-linecap:round;stroke-linejoin:miter;stroke-dasharray:none;stroke-opacity:1"
       id="path16393"
       d="m 269.64529,157.24635 c 1.7994,6.88629 6.75035,12.36121 11.38218,17.5445 4.39967,4.40166 9.07876,8.83066 14.83904,11.39991 1.08842,0.48546 2.22936,0.84338 3.34404,1.26507 1.69078,0.12831 3.38157,0.25662 5.07235,0.38493 0.29913,0.2914 4.42017,-3.93888 4.12104,-4.23028 v 0 c -0.39205,-1.35936 -0.78411,-2.71872 -1.17616,-4.07809 -3.58226,-5.38254 -8.14259,-9.90015 -12.62967,-14.53034 -4.58228,-4.81925 -8.82997,-10.18306 -14.4088,-13.88752 -0.43358,-0.74558 -10.9776,5.38625 -10.54402,6.13182 z" />
    <path
       style="fill:#ffffff;fill-opacity:1;stroke:none;stroke-width:15;stroke-linecap:round;stroke-linejoin:miter;stroke-dasharray:none;stroke-opacity:1"
       id="path16395"
       d="m 258.04246,135.24548 c -3.87037,2.77758 -6.16011,7.01145 -7.83094,11.3654 -1.06806,2.75122 -1.38706,5.68114 -1.64462,8.59562 -0.21611,2.21061 -1.01288,4.30236 -1.71806,6.39154 -1.04452,2.93251 -1.6678,6.00294 -2.92508,8.85602 -1.33535,2.5655 -3.60363,4.38907 -5.77683,6.21749 -3.83586,3.00498 -7.18033,6.52677 -10.23536,10.30638 -3.11851,4.00834 -5.85791,8.29706 -8.21097,12.79414 -0.37496,1.18814 -1.32437,3.74384 -1.16904,5.05663 0.12383,1.0466 0.89659,1.94143 1.04113,2.98538 0.13877,1.00233 -0.139,2.01901 -0.20849,3.02851 -0.0459,0.2978 4.16565,0.94713 4.21156,0.64933 v 0 c 0.26499,-0.80682 0.24245,-1.77555 0.79495,-2.42047 0.5897,-0.68833 1.66447,-0.75365 2.38989,-1.29708 0.38972,-0.29195 2.51289,-2.87114 2.79258,-3.20502 2.5755,-3.7292 5.22365,-7.41864 8.42066,-10.65183 3.20674,-3.36166 6.46476,-6.6846 9.43658,-10.25953 2.53245,-3.13344 5.08173,-6.326 6.40994,-10.18981 1.01614,-3.22169 1.80329,-6.49176 2.35229,-9.82732 0.48944,-2.52998 0.96283,-5.06616 1.23444,-7.63066 0.25674,-1.98772 0.5882,-3.77187 1.92209,-5.37465 2.63285,-3.4379 5.53052,-6.89701 6.56488,-11.19777 0.29644,-0.55519 -7.55516,-4.74749 -7.8516,-4.1923 z" />
    <path
       style="fill:#ffffff;fill-opacity:1;stroke:none;stroke-width:15;stroke-linecap:round;stroke-linejoin:miter;stroke-dasharray:none;stroke-opacity:1"
       id="path16397"
       d="m 244.48375,182.90863 c 0.0906,4.26428 1.84174,8.46254 5.06379,11.29246 1.16168,0.81613 2.77255,0.94012 2.11469,-1.30044 -0.0598,-0.20363 -0.32027,0.27861 -0.47745,0.4212 -0.21119,0.19158 -0.4184,0.38751 -0.6276,0.58126 -1.66644,1.61118 -2.43345,3.69202 -2.96976,5.89289 -0.77989,3.13155 -0.0638,5.5447 1.59993,8.21252 1.29752,2.16004 3.6718,3.32515 5.28884,5.16529 0.33589,0.38224 0.5833,0.83395 0.87495,1.25092 2.1731,2.40554 3.71175,5.19316 5.0618,8.11124 1.06139,2.9841 2.2689,5.86495 3.72939,8.67598 0.0384,0.25707 3.67385,-0.28636 3.63543,-0.54342 v 0 c 0.57165,-3.42192 1.2543,-6.85984 0.41357,-10.31068 -1.08669,-4.30384 -3.14134,-8.16742 -6.51404,-11.13547 -2.37003,-1.61681 -4.66321,-3.34996 -7.24383,-4.62929 -1.46175,-0.97201 -1.4228,-1.96295 -1.17692,-3.62887 0.43548,-1.73638 1.11254,-3.45508 1.02986,-5.27084 -0.20752,-1.54011 0.84305,-2.84513 1.27594,-4.21083 -0.22618,-3.76948 -2.14219,-7.41746 -4.4437,-10.3256 -0.12387,-0.46915 -6.75875,1.28252 -6.63489,1.75168 z" />
    <path
       style="fill:#ffffff;fill-opacity:1;stroke:none;stroke-width:15;stroke-linecap:round;stroke-linejoin:miter;stroke-dasharray:none;stroke-opacity:1"
       id="path16399"
       d="m 253.41209,142.66186 c -0.8727,4.97446 0.66311,10.04192 3.59248,14.11031 0.56103,0.77918 1.24379,1.46302 1.86568,2.19454 4.99278,4.59708 7.84071,4.58426 14.24747,4.43133 0.3122,0.003 1.24862,-0.002 0.9366,0.009 -3.19179,0.11463 -2.71336,-0.0128 -1.38599,0.0633 1.14108,0.0654 2.27799,0.21427 3.41735,0.30555 4.53236,0.33666 9.07859,0.0632 13.60512,-0.20843 2.02476,-0.14305 4.04454,-0.35437 6.05941,-0.5987 0.61092,-0.0741 1.45164,0.24823 1.83101,-0.23633 0.27885,-0.35617 -0.8457,-0.32138 -1.26855,-0.48208 0.58686,-0.24327 1.17371,-0.48655 1.76057,-0.72983 2.31202,-0.89493 4.24381,-0.88613 6.66379,-0.60594 0.15565,0.16616 2.50551,-2.03506 2.34986,-2.20122 v 0 c -0.36224,-0.78744 -0.63933,-1.61993 -1.08672,-2.3623 -1.09761,-1.82132 -2.90757,-2.99685 -4.64433,-4.11941 -0.6494,-0.37381 -1.21875,-0.95014 -1.94822,-1.12143 -4.36658,-1.02528 -9.70306,-0.77276 -14.15992,-0.17973 -1.62808,0.24959 -3.26803,0.50151 -4.91122,0.63409 -0.44587,0.036 -1.78036,-0.0219 -1.34062,0.0601 0.62491,0.1165 1.27469,-0.0248 1.90648,0.0454 0.37127,0.0412 -0.74659,0.028 -1.11988,0.042 -3.36857,-0.0904 -6.73518,-0.41599 -10.10657,-0.15212 0.75194,-0.009 1.50534,-0.0734 2.25582,-0.0257 0.17852,0.0113 -0.35474,0.0655 -0.5191,0.1361 -0.17253,0.0741 -0.29399,0.52536 -0.52397,0.40169 -0.14866,-0.0799 -0.24809,-0.22894 -0.37214,-0.34342 -1.94675,-3.22412 -2.58917,-7.04318 -4.62452,-10.22954 -0.0822,-0.88246 -12.56211,0.28036 -12.47989,1.16282 z" />
    <path
       style="fill:#ffffff;fill-opacity:1;stroke:none;stroke-width:15;stroke-linecap:round;stroke-linejoin:miter;stroke-dasharray:none;stroke-opacity:1"
       id="path16401"
       d="m 305.02313,164.40999 c 3.24635,0.23868 4.0847,-0.63261 6.41173,-2.67039 0.29775,-0.10666 -1.21057,-4.31757 -1.50833,-4.21091 v 0 c -3.37758,-1.03438 -5.27214,-2.05489 -8.41564,0.0282 -0.48459,0.24835 3.02765,7.10145 3.51224,6.8531 z" />
    <path
       style="fill:#ffffff;fill-opacity:1;stroke:none;stroke-width:15;stroke-linecap:round;stroke-linejoin:miter;stroke-dasharray:none;stroke-opacity:1"
       id="path16403"
       d="m 405.78752,176.50117 c -5.15219,0.97563 -9.32531,4.19584 -13.24862,7.4801 -2.84451,2.75776 -6.0228,5.12452 -9.04309,7.67779 -3.38868,3.03042 -6.03436,6.66625 -7.72599,10.87476 -0.9162,2.26206 -0.62021,4.69941 -1.15791,7.0317 -1.01518,2.87215 -3.19503,5.28801 -3.96186,8.27387 -0.28634,1.11496 -0.3127,2.28094 -0.46905,3.42141 -0.97002,1.35717 -1.94003,2.71434 -2.91005,4.0715 -0.23478,0.4867 6.6481,3.80711 6.88289,3.32041 v 0 c 0.71887,-1.4919 1.43773,-2.9838 2.1566,-4.4757 0.96177,-0.77371 2.01204,-1.44875 2.88529,-2.32113 0.63982,-0.63918 1.09701,-1.43868 1.61816,-2.17782 1.53221,-2.1731 2.66502,-4.5443 3.81538,-6.93217 0.83746,-1.71717 1.34394,-3.65507 2.59118,-5.1288 2.26429,-2.34969 4.85915,-4.35204 7.22791,-6.59151 2.57706,-2.45044 5.25144,-4.66356 8.54581,-6.10948 4.36267,-2.51625 8.93991,-5.23757 11.25648,-9.91068 0.60134,-0.59843 -7.86178,-9.10268 -8.46313,-8.50425 z" />
    <path
       style="fill:#ffffff;fill-opacity:1;stroke:none;stroke-width:15;stroke-linecap:round;stroke-linejoin:miter;stroke-dasharray:none;stroke-opacity:1"
       id="path16405"
       d="m 65.294886,175.70559 c 0.379305,0.84983 0.65731,1.75255 1.137913,2.54948 2.923046,4.84695 7.869119,8.17395 12.822318,10.62649 0.324661,0.18931 5.384051,1.86549 5.423314,0.87161 0.0096,-0.2437 -0.268068,-0.40819 -0.384499,-0.62249 -0.137717,-0.25348 -0.251298,-0.51935 -0.376947,-0.77903 -0.713226,1.32953 -0.153769,3.7565 -0.01313,5.24728 0.311829,2.50181 0.134024,5.03368 0.178534,7.55508 -0.269059,3.20074 0.74122,6.10133 2.220917,8.87835 2.043089,3.44398 5.199378,5.89813 8.569281,7.94609 2.081264,1.51599 5.062774,0.9805 7.285863,1.84324 1.04216,0.40445 1.9249,1.13732 2.88735,1.70598 0.29877,0.22611 3.49642,-3.9991 3.19765,-4.22521 v 0 c -1.08292,-0.47557 -2.24071,-0.80806 -3.24875,-1.42671 -1.79488,-1.10155 -2.85569,-3.3031 -4.88206,-4.12704 -2.615575,-1.4873 -5.075404,-3.14738 -7.16154,-5.34519 -1.569342,-1.62487 -2.075974,-2.93609 -2.073383,-5.2357 0.06153,-2.81849 -0.133233,-5.56358 -0.70215,-8.33078 -0.32209,-1.63043 -0.530366,-3.24198 -0.680475,-4.89955 -0.148795,-0.52133 -0.224588,-1.06929 -0.446384,-1.564 -0.191369,-0.42684 -0.526611,-0.77343 -0.77834,-1.16769 -0.734287,-1.15006 -1.502913,-2.22219 -2.553225,-3.12721 -3.960836,-4.1057 -7.54305,-8.81126 -12.576164,-11.6539 -0.373416,-0.5548 -8.219513,4.7261 -7.846097,5.2809 z" />
    <path
       style="fill:#ffffff;fill-opacity:1;stroke:none;stroke-width:15;stroke-linecap:round;stroke-linejoin:miter;stroke-dasharray:none;stroke-opacity:1"
       id="path16407"
       d="m 91.456319,248.89834 c -0.568728,-0.48474 -1.079243,-1.04756 -1.706184,-1.45421 -4.128008,-2.67754 -9.921356,-3.37058 -14.714214,-3.41924 -0.859459,0.062 -1.719859,0.11205 -2.578377,0.18592 -1.810782,0.15582 -3.631241,0.23723 -5.429157,0.50314 -0.217638,0.0322 -3.344871,1.0392 -3.653392,1.12942 -1.070294,0.31298 -1.815203,0.4731 -2.891195,0.72546 -1.259185,0.44941 -2.44871,0.25258 -3.726152,0.23257 -0.436402,-0.007 -1.611143,-0.2166 -1.30589,0.0953 1.148908,1.17412 3.144948,-0.55016 0.523639,1.16991 -1.050125,0.36195 -2.180653,0.54417 -3.150376,1.08584 -0.902073,0.50389 -1.289821,2.78947 -1.30535,3.39653 -0.01538,0.60135 0.268717,1.17271 0.403076,1.75906 -0.02999,0.1316 1.831023,0.55576 1.861016,0.42416 v 0 c 0.352439,-0.21163 0.724848,-0.87669 1.057316,-0.63489 0.377402,0.27447 -0.02162,0.93358 -0.0054,1.39996 0.01002,0.28733 0.265388,0.63523 0.08413,0.8584 -0.40254,0.49561 -1.077506,0.6853 -1.616259,1.02796 0.33588,0.29393 0.572429,0.78278 1.007638,0.88181 3.925052,0.8931 7.723595,0.23335 11.519962,-0.72389 1.282051,-0.32804 2.604125,-0.77897 3.940638,-0.81125 0.404807,-0.01 1.578189,-0.10341 1.212704,0.0709 -0.956301,0.45609 -3.75756,0.005 -0.151429,0.41552 2.446486,0.36556 4.888891,0.6417 7.341803,0.94881 2.638655,0.33036 5.25825,0.87506 7.924286,0.34866 0.679947,0.37881 6.037075,-9.2371 5.357128,-9.6159 z" />
    <path
       style="fill:#ffffff;fill-opacity:1;stroke:none;stroke-width:15;stroke-linecap:round;stroke-linejoin:miter;stroke-dasharray:none;stroke-opacity:1"
       id="path16409"
       d="m 75.79969,343.72772 c -4.18016,1.95431 -7.293738,5.42846 -10.113673,8.97904 -1.483832,1.87584 -3.194056,3.55539 -4.845166,5.28194 -1.73822,1.88154 -2.950422,4.00667 -3.768334,6.41457 -0.606019,2.26139 -0.104207,4.46964 0.575124,6.63646 -0.384812,-0.34405 -0.151793,-1.00673 -0.471019,-1.3684 -0.666994,-0.75567 -4.90381,2.51863 -5.386308,2.86272 -5.361179,4.48568 -10.692296,9.45517 -14.205312,15.59035 -0.820761,1.43339 -1.389305,2.99714 -2.083958,4.49571 0.0038,1.8015 0.0075,3.603 0.01129,5.4045 -0.202022,0.45274 6.200714,3.30977 6.402737,2.85703 v 0 c 1.459656,-0.8657 2.919312,-1.73141 4.378968,-2.59711 1.005706,-1.12314 2.058544,-2.2058 3.017116,-3.36943 0.611572,-0.7424 4.883369,-6.47309 5.493447,-7.31185 0.751498,-1.03319 1.420689,-2.12734 2.21588,-3.12728 1.197967,-1.50644 2.705423,-2.74821 3.870492,-4.28482 2.330928,-2.69787 5.213127,-5.71769 5.428614,-9.49967 0.03602,-0.63215 -0.138108,-1.2588 -0.207161,-1.8882 -0.09781,-0.30684 -0.169587,-0.62323 -0.293425,-0.92052 -0.158302,-0.38003 -0.676699,-0.51807 -0.506118,-0.92111 0.789512,-1.44439 2.188448,-2.54117 3.050554,-3.94506 1.294201,-1.75859 2.613042,-3.15567 4.64694,-4.09639 3.925999,-2.66661 7.542807,-6.03791 9.07824,-10.65867 0.320589,-0.4447 -5.968342,-4.97851 -6.288931,-4.53381 z" />
    <path
       style="fill:#ffffff;fill-opacity:1;stroke:none;stroke-width:15;stroke-linecap:round;stroke-linejoin:miter;stroke-dasharray:none;stroke-opacity:1"
       id="path16411"
       d="m 83.403307,362.17615 c -1.402849,3.60801 -1.221441,7.54527 -0.166584,11.21457 0.760493,1.49672 0.573281,2.00622 0.21769,3.54075 -0.91348,2.53535 -2.556341,4.7225 -3.975049,6.98877 -2.008945,3.37171 -3.666271,7.06433 -3.868514,11.04375 -0.04116,0.8099 0.03732,1.62145 0.05598,2.43217 0.490312,2.46897 1.777383,4.93209 3.908171,6.42073 0.936062,0.65396 2.037529,1.03151 3.056294,1.54726 0.142103,0.25014 3.679618,-1.7595 3.537514,-2.00964 v 0 c 0.003,-2.05184 -0.183556,-4.01333 -0.149877,-6.04423 0.08402,-3.28372 2.465937,-6.00463 3.624854,-8.964 1.5683,-3.47166 3.158386,-7.06108 3.074488,-10.95013 -0.08925,-1.48449 -0.564467,-2.83768 0.138691,-4.22239 0.903787,-3.44374 1.158082,-7.14605 0.09969,-10.58212 0.02938,-0.67553 -9.523974,-1.09101 -9.553353,-0.41549 z" />
    <path
       style="fill:#ffffff;fill-opacity:1;stroke:none;stroke-width:15;stroke-linecap:round;stroke-linejoin:miter;stroke-dasharray:none;stroke-opacity:1"
       id="path16413"
       d="m 91.298974,368.86695 c -0.319622,0.21207 -1.195103,0.33401 -0.958867,0.6362 0.391463,0.50077 1.223623,0.34601 1.841914,0.49341 1.83977,0.4386 3.693965,0.75348 5.522092,1.24496 0.0243,0.008 0.639525,0.18066 0.72108,0.2883 0.803948,1.06108 1.252616,2.59419 1.820517,3.78756 1.63415,3.25426 3.71087,6.18401 6.11633,8.90425 3.57753,3.53908 7.38594,6.83021 11.33044,9.95163 3.02835,2.35292 6.48456,3.73084 9.99081,5.19117 0.31821,0.40832 6.09274,-4.09182 5.77454,-4.50014 v 0 c -0.72041,-1.60063 -1.28329,-3.28195 -2.16121,-4.8019 -0.90854,-1.57297 -2.99233,-3.42007 -4.28504,-4.66857 -3.73758,-2.98028 -7.64674,-5.7167 -11.43983,-8.6232 -2.22259,-1.71284 -4.55776,-3.29309 -5.99121,-5.77572 -1.59033,-2.32837 -2.68992,-4.92126 -4.36983,-7.18398 -0.53855,-0.53089 -1.02776,-1.11698 -1.61565,-1.59266 -4.277975,-3.46141 -9.514845,-3.59932 -14.738758,-2.86489 -0.672711,0.17272 1.769961,9.6863 2.442672,9.51358 z" />
    <path
       style="fill:#ffffff;fill-opacity:1;stroke:none;stroke-width:15;stroke-linecap:round;stroke-linejoin:miter;stroke-dasharray:none;stroke-opacity:1"
       id="path16415"
       d="m 166.50124,153.97103 c 2.85571,-5.19779 3.86565,-11.15797 5.09149,-16.89913 0.18298,-0.7953 0.3619,-1.59155 0.54895,-2.38591 0.50934,-2.16301 0.42004,-1.83619 1.02464,-3.85561 0.22889,-0.76452 0.85674,-2.5593 0.8207,-3.38356 -0.0456,-1.04411 -0.34997,-2.06072 -0.52495,-3.09108 0.17178,-0.23653 -3.17334,-2.66596 -3.34513,-2.42943 v 0 c -1.39342,0.28338 -2.8586,0.32559 -4.18026,0.85015 -3.30063,1.31001 -6.45989,7.9289 -7.83065,10.96587 -2.21652,5.98456 -4.12272,12.46893 -2.74765,18.87166 -0.096,0.78792 11.0469,2.14496 11.14286,1.35704 z" />
  </g>
</svg>
