<?xml version="1.0" encoding="UTF-8" standalone="no"?>
<!-- Created with Inkscape (http://www.inkscape.org/) -->

<svg
   width="512"
   height="512"
   viewBox="0 0 512 512.00002"
   version="1.1"
   id="svg12082"
   inkscape:version="1.2.1 (9c6d41e410, 2022-07-14, custom)"
   sodipodi:docname="cracks3.svg"
   xmlns:inkscape="http://www.inkscape.org/namespaces/inkscape"
   xmlns:sodipodi="http://sodipodi.sourceforge.net/DTD/sodipodi-0.dtd"
   xmlns="http://www.w3.org/2000/svg"
   xmlns:svg="http://www.w3.org/2000/svg">
  <sodipodi:namedview
     id="namedview12084"
     pagecolor="#ffffff"
     bordercolor="#000000"
     borderopacity="0.25"
     inkscape:showpageshadow="2"
     inkscape:pageopacity="0.0"
     inkscape:pagecheckerboard="true"
     inkscape:deskcolor="#d1d1d1"
     inkscape:document-units="px"
     showgrid="true"
     inkscape:zoom="1.0973349"
     inkscape:cx="159.93294"
     inkscape:cy="288.42608"
     inkscape:window-width="1920"
     inkscape:window-height="1030"
     inkscape:window-x="0"
     inkscape:window-y="0"
     inkscape:window-maximized="1"
     inkscape:current-layer="layer1">
    <inkscape:grid
       type="xygrid"
       id="grid12086"
       spacingx="128"
       spacingy="128" />
  </sodipodi:namedview>
  <defs
     id="defs12079" />
  <g
     inkscape:label="Layer 1"
     inkscape:groupmode="layer"
     id="layer1">
    <path
       style="fill:#ffffff;fill-opacity:1;stroke:none;stroke-width:15;stroke-linecap:round;stroke-linejoin:miter;stroke-dasharray:none;stroke-opacity:1"
       id="path17949"
       d="m 204.98819,73.655879 c -0.56167,0.918332 -1.22418,1.782142 -1.685,2.754996 -3.32425,7.01789 -4.36091,16.587598 -5.29233,24.254415 -1.12818,10.1009 -1.91933,20.23173 -2.19148,30.39147 0.0296,6.90283 0.62868,13.87263 2.68497,20.4976 1.04698,3.37319 1.9303,5.05757 3.37359,8.22534 3.21085,6.49271 7.9111,12.04661 12.01665,17.96509 3.39628,5.03095 4.88629,10.49023 5.54556,16.44211 0.35579,4.97553 -0.588,9.80727 -2.12848,14.50779 -1.86125,5.21332 -4.67284,10.00542 -6.89723,15.06339 -2.67529,5.76243 -3.6093,11.64994 -3.40239,17.9457 0.25762,7.57664 4.42226,13.7022 9.07437,19.34665 3.9955,4.45813 8.14769,8.76544 11.96815,13.37753 3.23349,4.06051 5.67523,8.65999 8.08595,13.23453 2.35065,4.64655 5.1331,9.03681 8.22576,13.2192 3.31126,4.42141 7.46115,8.08051 11.47463,11.83659 3.96707,3.6797 5.77702,7.50193 7.41817,12.5482 1.2923,5.95497 2.73276,11.8357 4.93312,17.52456 2.48686,6.09864 6.55851,11.25908 10.93577,16.09736 5.04262,5.22706 10.23631,10.30216 15.24722,15.55996 5.95585,6.12358 10.95005,13.04033 15.6945,20.11529 4.88594,7.67302 9.64352,15.43482 13.80153,23.52915 3.87519,7.18563 5.21205,15.2577 6.99049,23.12442 1.74903,7.39719 4.56662,14.64272 9.84248,20.27336 1.02573,1.09471 2.20086,2.03918 3.3013,3.05876 2.85736,1.80518 5.13376,3.65167 8.66393,4.10385 2.28164,0.29225 4.59916,-0.11366 6.89874,-0.17048 0.55732,0.21286 3.56767,-7.66894 3.01034,-7.8818 v 0 c -2.86862,-1.1907 -5.93839,-2.06508 -8.33136,-4.11369 -0.60114,-0.65328 -1.26533,-1.25373 -1.80344,-1.95985 -3.56126,-4.67326 -4.68932,-10.73149 -6.18287,-16.2598 -2.05593,-8.85022 -4.2215,-17.71104 -8.12056,-25.97067 -4.19318,-8.7851 -8.67994,-17.45245 -14.29562,-25.43122 -5.41536,-7.56634 -11.29858,-14.78281 -18.04463,-21.21709 -5.26179,-5.10926 -10.74411,-9.96685 -16.37664,-14.66398 -3.77802,-3.45177 -7.47344,-7.01822 -9.38745,-11.88752 -2.01692,-5.55903 -2.74297,-11.4246 -4.2792,-17.1206 -2.1572,-6.96114 -4.79543,-12.24471 -10.17621,-17.30829 -3.64083,-3.35795 -7.56454,-6.43687 -10.78485,-10.22455 -2.8634,-3.51182 -5.40912,-7.23051 -7.12429,-11.45534 -2.50607,-5.42263 -5.06116,-10.85806 -8.81822,-15.55705 -3.77063,-4.68314 -7.91485,-9.02753 -11.88229,-13.54141 -3.18353,-3.80411 -6.39596,-7.70676 -8.23303,-12.37298 0.0203,-4.82503 1.89527,-9.31687 3.41242,-13.83331 1.97556,-5.38574 4.04397,-10.73685 5.94294,-16.14997 1.81017,-5.89218 3.28514,-11.93749 3.1594,-18.14921 -0.0701,-1.20065 -0.0808,-2.40626 -0.21031,-3.60196 -0.69816,-6.44416 -3.03011,-12.49425 -6.61741,-17.87609 -3.63024,-5.3144 -8.06991,-10.14133 -10.68691,-16.07975 -0.34874,-1.0356 -0.75778,-2.05282 -1.04623,-3.1068 -1.91895,-7.01168 -1.83166,-14.38659 -2.10532,-21.5854 -0.14832,-9.59542 -0.0665,-19.21986 1.86381,-28.66774 1.36044,-7.685796 3.45809,-17.02967 2.31917,-24.800317 -0.16921,-1.154469 -0.58871,-2.25813 -0.88306,-3.387195 0.0441,-0.629194 -8.85408,-1.252443 -8.89815,-0.623249 z" />
    <path
       style="fill:#ffffff;fill-opacity:1;stroke:none;stroke-width:15;stroke-linecap:round;stroke-linejoin:miter;stroke-dasharray:none;stroke-opacity:1"
       id="path17951"
       d="m 96.347971,418.53183 c 0.323214,-0.8287 0.705322,-1.63678 0.969642,-2.48611 1.101325,-3.53883 1.620988,-7.2703 2.424242,-10.88019 0.903765,-4.06161 0.853245,-3.63686 2.035185,-7.58113 2.37823,-7.45528 7.15843,-13.50302 12.36618,-19.17817 4.20181,-4.16638 8.76811,-8.26783 14.34643,-10.49034 0.89378,-0.3561 1.83116,-0.59115 2.74674,-0.88673 6.11688,-1.32015 12.40303,-0.65206 18.58549,-0.35422 8.30191,0.10483 16.73709,-1.32757 24.20385,-5.09834 1.37576,-0.69477 2.66158,-1.55488 3.99237,-2.33232 6.37692,-4.4682 8.90951,-8.95328 10.40045,-16.40351 0.5238,-4.61534 2.55135,-8.1064 5.23271,-11.77706 3.84421,-4.85136 8.45818,-8.985 13.37937,-12.70616 4.00168,-3.13305 8.78572,-4.2535 13.61709,-5.36252 2.77654,-0.59842 5.41993,-1.60679 8.08284,-2.56269 3.26541,-1.17218 3.35213,-1.00508 6.45657,-2.58933 0.95841,-0.48909 1.8694,-1.06601 2.80409,-1.59902 4.86018,-3.68789 7.60637,-6.2422 -2.04713,-9.4815 -0.68296,-0.22917 -0.39331,1.38604 -0.58997,2.07906 0.17282,2.93172 1.26086,5.05257 4.03601,6.22791 0.52767,0.22348 1.06969,0.53333 1.64219,0.50851 1.38244,-0.06 2.7211,-0.50449 4.08165,-0.75674 2.52663,-2.41362 3.39134,-5.86759 5.49043,-8.59453 0.67625,-0.86383 1.4804,-1.60836 2.30644,-2.3243 0.14541,-0.12604 0.30082,-0.24052 0.44267,-0.37056 0.0317,-0.0291 0.11872,-0.1052 0.0757,-0.10466 -0.81748,0.0103 -1.63262,0.0897 -2.44894,0.13454 0.70723,0.80007 -0.92834,-0.67078 -0.68093,-0.52578 1.53799,0.90136 -0.68467,-0.0211 1.74405,1.18076 2.01816,0.99869 2.62155,0.65968 5.35768,0.8469 5.0517,-0.0106 9.94197,-1.38457 14.78326,-2.67429 6.38389,-1.7614 12.71142,-3.71043 18.97934,-5.84647 7.58631,-2.55286 14.64845,-6.2968 21.28813,-10.72583 4.29441,-2.92689 7.84702,-6.68299 11.2528,-10.56283 3.14223,-3.323 6.6514,-6.26143 9.86907,-9.51252 3.36229,-3.64394 6.46874,-7.85933 7.16675,-12.90911 0.1168,-0.84505 0.0846,-1.70406 0.12691,-2.5561 -0.14643,-4.41304 -2.73729,-7.88824 -4.89251,-11.53329 -2.4469,-3.94062 -3.31894,-7.82811 -3.66892,-12.39081 -0.1437,-6.212 2.06686,-10.75036 5.4192,-15.79424 5.08163,-6.46006 11.65498,-11.5183 17.93571,-16.7435 8.04025,-6.58018 15.57474,-13.73194 22.98671,-21.00217 6.28862,-6.27839 12.42694,-12.78199 17.45143,-20.14148 0.99193,-1.4529 1.8923,-2.96624 2.83845,-4.44936 4.11563,-7.10872 7.30699,-14.83183 8.2799,-23.04406 0.17258,-1.45679 0.19284,-2.92761 0.28926,-4.39141 -0.21566,-7.94115 -2.85845,-15.450247 -5.99762,-22.653697 -0.56909,-2.610706 -2.59262,-4.6303 -3.34901,-7.151586 -0.46135,-1.537831 -0.47744,-3.175394 -0.71615,-4.76309 -0.0535,-0.556098 -7.91794,0.200821 -7.86441,0.756919 v 0 c 0.15156,1.814181 0.38651,3.623318 0.45469,5.442542 0.34682,9.254133 -0.69218,-0.02894 0.4637,8.576647 0.24368,1.240919 0.4539,2.488881 0.73104,3.722756 1.09899,4.892736 2.71588,9.672269 1.69519,14.758729 -0.17039,1.02675 -0.28784,2.0637 -0.51116,3.08025 -1.40879,6.41297 -4.52165,12.30837 -8.09218,17.75772 -5.62757,7.93476 -12.11902,15.15122 -19.07606,21.94869 -7.20986,7.10542 -14.64405,13.96762 -22.15232,20.7562 -6.88522,6.49848 -13.74135,13.2228 -18.36809,21.58638 -0.63951,1.3023 -1.35208,2.57119 -1.91851,3.9069 -2.57978,6.0835 -3.46425,12.71336 -2.67707,19.26043 1.14022,6.17369 2.83481,11.16332 6.72006,16.18228 1.40271,1.69679 1.12805,1.42266 2.52571,2.91136 0.4516,0.48102 1.51539,1.28805 1.81641,1.9461 0.0642,0.14043 0.0398,0.30627 0.0597,0.45941 -1.35349,3.64227 -5.09315,6.72516 -7.16941,9.97441 -2.53765,3.37535 -4.82499,7.01062 -7.85817,9.967 -3.66976,2.82047 -7.90465,4.76614 -11.93783,6.99953 -6.45366,3.41836 -12.92773,6.82095 -19.69814,9.5815 -5.89758,2.36986 -11.86576,4.54612 -17.88814,6.57925 -3.95469,1.37878 -7.89153,2.80632 -11.83964,4.20356 0.4829,0.12543 1.0246,0.11348 1.4487,0.37627 0.12687,0.0786 -0.13609,0.26743 -0.17935,0.41028 -0.0304,0.10052 0.0487,0.25567 -0.0396,0.31258 -0.2186,0.14094 -2.29004,-2.04977 -2.76477,-1.67255 -1.22222,0.021 -2.44782,-0.0302 -3.66667,0.0629 -3.46899,0.26506 -6.24962,2.88244 -8.21879,5.50024 -1.08546,1.9456 -2.03254,3.77617 -2.35375,6.01397 -0.0877,0.61094 -0.23924,1.72866 0.34907,1.34115 0.42748,-0.28157 0.74252,-0.70481 1.11378,-1.05722 0.4257,-0.0493 2.92963,-1.19662 3.50278,0.0478 0.0258,0.056 -0.27326,0.31258 -0.27593,0.31972 -0.19611,0.52433 0.0269,1.1622 -0.27709,1.6564 -0.13164,0.2689 -0.15543,0.98637 -0.39491,0.80669 -2.13805,-1.60412 -3.83911,-3.72307 -5.8457,-5.48887 -1.26348,-1.11186 -5.5833,0.86397 -6.7736,1.2172 -2.73883,1.27193 -2.79526,1.24185 -5.44875,2.70036 -0.8064,0.44325 -1.56223,0.98078 -2.39336,1.3757 -2.14536,1.01937 -4.54709,1.4858 -6.82336,2.09314 -6.35486,1.36176 -12.68832,2.84125 -18.03909,6.77787 -1.02609,0.79231 -2.08856,1.53961 -3.07827,2.37691 -4.6521,3.93573 -8.48159,8.77022 -11.63187,13.96288 -2.64662,4.83951 -4.7124,9.87938 -5.15581,15.44238 -0.0223,0.12445 -0.42999,2.55722 -0.57608,2.84182 -1.0719,2.0882 -5.26296,3.69517 -7.1235,4.70542 -7.70269,2.98797 -15.74845,4.69038 -23.90848,5.91507 -2.13978,2.03232 -0.33092,0.60815 -6.71374,0.65876 -4.74068,0.0376 -9.51589,0.18505 -14.12105,1.43821 -3.29801,1.03515 -4.68115,1.32819 -7.8215,2.90283 -5.4902,2.75288 -10.22693,6.77058 -14.37267,11.25526 -5.987844,7.05064 -11.267329,14.69524 -14.296828,23.52226 -2.071245,6.91682 -3.831959,14.3262 -2.20547,21.55765 0.207596,0.92299 0.608922,1.79142 0.913383,2.68713 0.0074,0.61244 8.668499,0.50773 8.661096,-0.1047 z" />
    <path
       style="fill:#ffffff;fill-opacity:1;stroke:none;stroke-width:15;stroke-linecap:round;stroke-linejoin:miter;stroke-dasharray:none;stroke-opacity:1"
       id="path17953"
       d="m 416.3334,382.53707 c 0.20762,-0.90449 0.51111,-1.7922 0.62287,-2.71345 0.32716,-2.69675 0.0849,-4.88471 -0.21824,-7.58779 -0.38429,-3.42697 -0.85989,-6.71671 -1.64711,-10.08112 -0.40674,-1.73832 -0.94718,-3.44263 -1.42077,-5.16395 -2.70647,-8.74116 -6.73625,-16.97805 -11.37347,-24.8391 -3.77019,-5.55448 -0.91492,-1.50208 -5.02444,-6.92839 -3.14401,-4.15143 -3.09789,-4.61498 -7.0661,-8.24658 -3.73428,-3.41752 -5.20786,-4.14584 -9.41243,-6.908 -7.23047,-4.22952 -15.3896,-6.88381 -23.78628,-7.34497 -2.56314,-0.14077 -5.13256,-0.12187 -7.69884,-0.1828 -9.14302,0.31372 -18.28957,0.0956 -27.42792,-0.24398 -6.78313,-0.27694 -13.58448,-0.41292 -20.36227,0.0742 -0.26044,0.0187 -8.14339,0.77744 -8.68295,0.82927 -1.90742,-1.06397 -4.73691,1.53384 -6.70087,0.45898 -0.57807,-0.31637 2.07496,-0.28567 1.77422,-0.87202 -0.368,-0.71747 -1.60001,-0.20494 -2.39518,-0.33864 -1.88361,-0.3167 -2.05726,-0.40895 -3.81558,-0.89139 -2.37281,-0.66798 -4.41222,-2.13803 -6.70862,-2.97924 -0.029,0.0456 -0.0983,0.18959 -0.087,0.13676 0.26544,-1.24019 -2.09964,-4.8115 -2.72716,-5.87279 -2.83392,-4.45765 -6.74454,-7.16887 -11.40249,-9.42146 -3.14069,-1.88951 -6.37105,-3.628 -9.5693,-5.41879 -4.20459,-2.6064 -8.72108,-4.55045 -13.41624,-6.06552 -4.27704,-1.28949 -8.73168,-1.76351 -13.05198,-2.85865 -4.41303,-1.25065 -8.33373,-3.69977 -12.28448,-5.95526 -4.95081,-2.9328 -10.02722,-5.643 -15.07622,-8.40051 -4.22164,-2.26747 -8.27472,-4.82929 -12.35992,-7.32967 -3.02268,-2.56795 -6.28051,-4.83564 -9.38631,-7.29702 -1.68267,-1.19794 -1.21173,-3.04213 -1.1035,-4.88656 0.441,-4.37176 0.40732,-8.74283 -0.31812,-13.07588 -1.09778,-5.4314 -3.472,-9.13729 -7.66271,-12.66388 -2.90376,-1.93125 -6.14336,-3.33429 -9.34124,-4.71161 -2.98925,-1.1424 -6.04981,-2.14487 -9.13089,-3.01876 -1.33011,-0.67841 -2.83191,-0.45479 -4.19989,-0.86227 -1.16528,-0.5881 -2.28545,-1.30214 -3.17399,-2.26586 -0.87637,-1.38192 -1.36736,-2.99315 -1.98844,-4.50488 -1.00632,-2.51128 -2.38009,-4.83563 -3.83707,-7.10545 -1.45545,-2.3176 -3.36173,-4.28055 -5.20192,-6.28601 -1.63559,-1.29263 -1.90448,-3.10058 -2.31202,-5.02757 -0.67498,-4.22522 -2.3367,-8.24818 -4.04723,-12.14759 -2.18484,-4.56575 -4.87948,-8.89839 -8.61065,-12.37025 -0.8089,-0.75267 -1.69706,-1.41539 -2.54558,-2.12309 -5.10906,-3.69598 -11.00877,-5.62298 -17.067204,-7.06588 -2.81581,-0.74547 -5.760388,-1.17901 -8.353188,-2.58447 -1.431299,-0.77584 -1.941857,-1.27214 -3.222286,-2.28539 -3.596082,-3.14454 -5.879568,-6.64608 -7.555491,-11.08164 -1.1071,-3.43866 -1.661084,-7.03902 -2.7929,-10.46945 -0.691252,-2.09511 -1.430392,-3.62044 -2.325916,-5.63423 -1.37866,-2.6196 -2.724292,-5.27095 -4.478806,-7.6674 -0.580355,-0.7927 -1.298841,-1.48183 -1.844483,-2.298809 -0.630097,-0.943432 -1.114062,-1.976667 -1.671094,-2.965 -0.13126,-0.345731 -5.020625,1.510566 -4.889365,1.856296 v 0 c 0.391909,1.070103 0.858971,2.115603 1.175727,3.210313 0.258814,0.89445 0.333975,1.83287 0.545895,2.73959 0.604879,2.58801 1.562121,5.08128 2.054169,7.69814 1.293465,5.68022 2.274622,11.47918 4.458164,16.90936 2.464628,5.48681 5.675177,10.50102 10.471216,14.2607 4.131151,3.18224 8.586857,5.96197 13.586796,7.5665 4.678664,1.53597 9.723731,2.46427 13.866416,5.22915 1.44594,1.13801 2.0471,1.48278 3.22031,2.91508 1.92918,2.3552 3.23424,5.18709 4.32157,8.00256 1.22421,3.48917 2.11492,7.03375 2.8733,10.64972 0.78571,3.50402 1.7588,6.98389 3.6963,10.05243 1.46409,1.95435 3.17843,3.66035 4.82415,5.45599 1.22313,1.60935 2.10975,3.39908 2.88026,5.26511 1.04444,2.18485 2.19321,4.31549 3.50444,6.35319 1.14483,1.79651 2.25372,3.61971 3.59298,5.28125 1.79828,2.14742 4.02776,3.94626 6.62264,5.03991 2.41915,1.15225 4.84665,2.26321 7.1903,3.56842 2.20396,1.1903 4.37732,2.38776 6.45639,3.78889 0.0278,0.0114 0.63554,0.38417 0.82728,0.17891 0.0636,-0.0681 -0.0139,-1.54239 -0.0505,0.47413 -0.27189,3.73101 -0.4153,7.47102 -0.44541,11.21178 -0.0472,5.6171 0.261,11.21022 2.86598,16.32829 1.31939,2.34867 1.7027,3.26569 3.42398,5.37444 2.70141,3.30952 6.10861,5.98093 9.80151,8.09123 4.10965,2.7395 8.31612,5.33372 12.35085,8.18657 5.03114,3.2903 10.18501,6.38696 15.54235,9.12201 5.30266,2.78166 10.67811,5.47851 16.30605,7.54524 4.57328,1.45898 9.21631,2.60818 14.01798,2.99482 3.04973,0.37208 6.07824,0.7759 8.67213,2.56972 3.85947,2.55272 7.7812,5.20508 12.29261,6.44573 1.26362,0.42748 1.17826,0.45131 2.33551,0.6794 0.9138,0.18011 1.7093,0.002 2.38477,0.81514 2.33712,2.85403 4.12051,6.12252 6.58606,8.88493 3.40467,3.39201 7.42837,5.873 11.97922,7.48161 2.9872,0.92368 3.82873,1.32344 6.99558,1.71708 6.47709,0.8051 12.90272,-0.96587 19.37553,-1.1211 9.11295,-0.87212 18.22998,-1.76462 27.37816,-2.17296 8.9479,-0.48228 17.87567,-1.15344 26.80412,-1.89427 0.99132,-1.01496 0.28986,-0.39765 3.65008,-0.16866 5.35006,0.36459 10.23026,2.46875 14.8388,5.10544 4.23176,2.68315 8.27354,5.5352 12.31393,8.49772 1.2184,0.89337 2.52262,1.68016 3.65534,2.67994 1.51277,1.33523 3.4358,3.97751 4.66244,5.56535 1.75191,2.64125 2.31165,3.30047 3.71688,6.16893 2.54807,5.20133 4.07718,10.82459 5.78264,16.33416 1.37983,4.61442 2.91481,9.19769 4.19876,13.83957 0.83112,3.00471 0.8307,4.01793 1.92422,6.86473 0.32247,0.8395 0.76625,1.62721 1.14938,2.44081 0.0381,0.54461 7.73998,0.005 7.70184,-0.53945 z" />
    <path
       style="fill:#ffffff;fill-opacity:1;stroke:none;stroke-width:15;stroke-linecap:round;stroke-linejoin:miter;stroke-dasharray:none;stroke-opacity:1"
       id="path17955"
       d="m 55.08465,326.87458 c 6.202539,-0.79434 11.512726,-4.19951 16.610769,-7.5843 3.363164,-2.43316 7.137888,-4.12617 10.926911,-5.76408 4.886972,-2.09938 9.391834,-4.93548 13.653388,-8.09343 3.963922,-2.98129 7.696802,-6.25 11.512312,-9.41449 2.89823,-2.44786 5.7929,-4.90127 8.579,-7.47676 2.95001,-2.63626 5.36105,-5.71948 7.12024,-9.25498 1.55751,-3.51947 2.48916,-7.26252 3.91277,-10.83387 1.5474,-3.51871 4.03076,-6.45491 6.45073,-9.39259 1.77047,-2.2974 3.89037,-4.14304 6.55588,-5.28135 2.59363,-0.87268 5.30207,-1.42672 8.00522,-1.84693 2.87776,-0.44524 5.78949,-0.47827 8.6931,-0.54349 4.33798,-0.0187 8.68718,-0.4598 12.92657,-1.36132 4.56276,-1.11741 8.72882,-3.27821 12.7244,-5.68571 1.67049,-0.79674 3.19072,-1.99786 4.92164,-2.67377 0.76939,-0.30044 1.59213,-0.44377 2.37398,-0.71009 2.10239,-0.71613 3.37049,-1.31179 5.42496,-2.19632 5.59505,-2.50743 10.8523,-5.67222 16.07658,-8.86059 4.94034,-3.06198 9.86718,-6.14671 14.81691,-9.19395 5.27554,-3.28623 10.39385,-6.8105 15.54948,-10.27887 4.60924,-3.24155 9.4864,-6.0607 14.2735,-9.02536 5.29631,-3.29782 10.09262,-7.22304 14.50784,-11.61375 4.14812,-4.52795 7.93648,-9.37537 11.61757,-14.28634 3.08815,-4.1445 6.0912,-8.3557 8.91102,-12.68769 1.5201,-2.52443 2.90921,-5.14089 4.1353,-7.82172 0.65908,-1.83907 1.8602,-3.38145 2.7839,-5.07779 1.10346,-1.90041 1.69221,-4.01943 2.50764,-6.0436 0.6907,-1.47331 1.80393,-2.7021 2.94293,-3.84043 2.72863,-2.57696 5.62456,-4.94597 8.19829,-7.68759 1.84566,-2.47664 3.63635,-4.95959 5.75026,-7.22494 0.49878,-0.42504 0.9686,-0.88661 1.49633,-1.27512 3.38953,-2.49528 1.84361,-0.8396 5.29416,-3.91711 3.05452,-2.72429 5.53222,-5.87888 8.02363,-9.10271 2.06662,-3.02228 4.09505,-6.13784 5.62421,-9.47793 1.26982,-2.77363 2.07944,-5.736866 2.87986,-8.668321 0.33536,-1.388373 0.67072,-2.776747 1.00608,-4.165121 0.13419,-0.40773 -5.63198,-2.305476 -5.76617,-1.897747 v 0 c -0.63687,1.056327 -1.27374,2.112653 -1.91062,3.168979 -4.23569,4.707251 -9.01376,8.902093 -13.15059,13.70952 -2.4537,2.84165 -4.94308,5.65339 -7.17428,8.6774 -0.63699,0.86333 -1.25199,1.74334 -1.84363,2.63837 -0.47149,0.71324 -0.83383,1.49863 -1.34444,2.18442 -0.36086,0.48468 -0.83703,0.87174 -1.25554,1.30761 -2.54094,1.96055 -5.34334,3.38935 -8.11629,4.97886 -3.33925,2.46055 -6.32461,5.31747 -9.20709,8.29535 -1.74489,1.95202 -3.60159,3.81311 -5.08455,5.98445 -1.28034,1.94824 -2.46339,3.95688 -3.4591,6.0668 -0.77982,1.53866 -1.34469,3.20326 -2.31427,4.63904 -1.61648,1.90775 -3.42687,3.61914 -5.09179,5.48384 -3.38734,3.93633 -6.59272,8.02438 -9.74865,12.14784 -3.24254,4.26654 -6.29029,8.72659 -10.14035,12.48308 -3.73049,3.57677 -7.69372,6.93789 -11.96622,9.85315 -4.7545,3.23397 -9.57979,6.36256 -14.33307,9.59737 -5.02195,3.56222 -10.00507,7.17505 -14.89151,10.92205 -4.32905,3.32203 -8.70839,6.63322 -13.46209,9.32952 -5.15924,2.94018 -10.4811,5.58089 -15.59692,8.59704 -2.0171,1.30772 -3.01232,1.8657 -4.84068,3.37734 -0.62512,0.51682 -1.1579,1.1405 -1.79301,1.64499 -1.34464,1.06808 -2.96515,1.78891 -4.40751,2.70537 -3.56433,1.6307 -7.27879,2.86718 -10.98134,4.14202 -0.67679,0.25599 -1.3629,0.48858 -2.03036,0.76796 -0.58973,0.24685 -1.13519,0.59858 -1.73865,0.80964 -2.06588,0.72256 -4.37277,0.73838 -6.46856,1.35874 -3.1364,0.48933 -6.28179,1.00938 -9.32704,1.92424 -3.16642,0.91621 -6.35771,1.80823 -9.25946,3.41825 -3.44264,1.93994 -6.48345,4.36852 -8.84099,7.58169 -2.63927,3.5985 -4.89262,7.48469 -6.4522,11.67916 -1.2539,3.46138 -2.24955,7.01337 -3.65883,10.41825 -1.22127,2.87474 -2.25332,5.88893 -4.49153,8.16951 -2.74852,2.51971 -5.97831,4.40438 -8.93664,6.66011 -3.861868,2.98391 -7.658841,6.05302 -11.598691,8.93472 -4.041997,2.85909 -8.128232,5.65157 -12.447056,8.08316 -3.625267,2.11219 -7.319396,4.06214 -11.330878,5.35626 -5.58939,2.23151 -11.431679,4.69611 -15.123465,9.68141 -0.246261,0.19776 2.550439,3.68041 2.7967,3.48265 z" />
    <path
       style="fill:#ffffff;fill-opacity:1;stroke:none;stroke-width:15;stroke-linecap:round;stroke-linejoin:miter;stroke-dasharray:none;stroke-opacity:1"
       id="path17957"
       d="m 248.60533,186.96269 c -3.96368,4.17191 -5.49628,9.82725 -5.88428,15.43267 -0.11321,4.66841 1.85212,8.71191 4.0893,12.66575 3.03253,4.84052 6.90081,8.99587 11.40346,12.48123 2.85937,2.20324 6.22003,3.39175 9.55459,4.62688 1.2169,0.57262 1.45746,2.03748 1.91579,3.18784 0.86948,2.39517 2.43639,4.41574 4.0506,6.35062 1.60732,1.59326 2.59321,3.57153 3.6539,5.53096 1.2851,2.62982 3.03026,4.81645 5.22094,6.73529 1.84302,1.25812 2.95559,3.00103 3.9958,4.91653 1.04125,2.14573 2.0495,4.30864 2.93805,6.52222 0.79339,1.76203 -0.20075,2.99609 -0.90469,4.59434 -0.82491,1.55721 -1.3036,3.18647 -1.62921,4.90807 -0.12163,0.64314 -0.34948,1.28092 -0.3326,1.93524 0.0604,2.34156 0.85564,3.71736 1.7129,5.89985 0.0483,0.29678 4.24548,-0.38608 4.19719,-0.68287 v 0 c 0.0686,-0.73905 0.0215,-1.49819 0.20587,-2.21715 0.12909,-0.50337 0.49268,-0.91554 0.71765,-1.38397 0.95438,-1.98717 2.06684,-3.89203 2.86649,-5.95686 1.06984,-3.0116 1.48822,-6.12585 0.58973,-9.25122 -0.83883,-2.68516 -2.05627,-5.2197 -3.48192,-7.64358 -1.49232,-2.41419 -3.20824,-4.65242 -5.40251,-6.47909 -1.74797,-1.46019 -3.61029,-2.88486 -4.90611,-4.77895 -1.40219,-2.05096 -2.91355,-4.03866 -4.48501,-5.96168 -1.38547,-1.61899 -2.83746,-3.19038 -4.03624,-4.95849 -0.9794,-1.75691 -1.69512,-3.68341 -3.0846,-5.18261 -2.26517,-2.31153 -5.06582,-3.94727 -7.52431,-6.03819 -3.78066,-3.36651 -7.12369,-7.13949 -10.30091,-11.07799 -2.38115,-2.68884 -4.18841,-3.74479 -3.1421,-7.50685 1.64453,-4.75342 3.859,-9.49675 3.86335,-14.61328 0.14529,-0.41445 -5.71583,-2.46916 -5.86112,-2.05471 z" />
    <path
       style="fill:#ffffff;fill-opacity:1;stroke:none;stroke-width:15;stroke-linecap:round;stroke-linejoin:miter;stroke-dasharray:none;stroke-opacity:1"
       id="path17959"
       d="m 241.47663,268.71579 c 3.249,-0.90721 5.91277,-2.96841 8.67619,-4.79662 1.38413,-0.91572 2.82894,-1.74198 4.17413,-2.714 3.64228,-2.63188 4.53621,-3.67948 7.75979,-6.73617 2.9182,-3.19147 6.28841,-6.42174 7.78733,-10.6021 0.38407,-1.07115 0.40894,-1.96845 0.53148,-3.0947 -2.93814,-5.7681 0.10651,-2.04885 -4.76376,-3.93321 -0.62592,-0.24218 1.35887,-0.04 2.00956,0.12439 0.76772,0.19394 0.83588,1.01262 1.51978,1.23962 0.76577,-1.21871 1.28648,-2.57048 1.91734,-3.85979 0.0413,-0.0508 0.0591,-0.14337 0.12395,-0.1523 0.0968,-0.0133 -0.009,0.22506 0.0677,0.28517 0.0672,0.0524 0.1586,0.0692 0.24331,0.0782 0.44441,0.047 1.00544,-0.0122 1.43638,-0.0399 1.13965,0.0766 2.21076,-0.50949 3.31964,-0.5937 0.3639,-0.0276 1.16755,0.10488 1.51155,0.15271 -0.27736,0.0105 -0.83772,-0.24604 -0.83207,0.0315 0.006,0.27904 0.55612,0.0482 0.83418,0.0723 1.36205,0.11796 2.71744,0.28723 4.08077,0.38641 3.48091,0.30684 6.49918,-0.85708 9.60465,-2.2295 2.23703,-1.15787 4.59706,-2.02439 6.94335,-2.92486 2.09224,-0.67124 3.75968,-1.99941 5.48476,-3.30064 2.81496,-2.38575 5.45443,-5.00363 7.51796,-8.07147 0.0633,-0.062 1.2934,-2.32999 0.94562,-2.38817 -0.20638,-0.0345 -0.31774,0.32537 -0.52632,0.34213 -1.32858,0.10678 -2.67741,-0.15502 -3.99852,0.0215 -0.23725,0.0317 0.38003,0.29111 0.57005,0.43666 2.75587,1.62848 6.20214,0.98644 9.24866,0.68219 2.96989,-0.24505 5.94786,-0.38594 8.75866,-1.43673 2.2436,-0.8408 2.73716,-1.5235 4.17208,-3.43425 0.20001,-0.10272 -1.25263,-2.93127 -1.45264,-2.82856 v 0 c -1.92965,-0.60411 -3.71103,-1.17714 -5.755,-1.09332 -2.98299,-0.0714 -5.93474,0.46082 -8.84402,1.08938 -0.77983,0.17629 -1.55338,0.34589 -2.32869,0.53987 -0.27338,0.0684 -1.03598,0.0393 -0.81714,0.2168 1.50495,1.22101 1.39881,-0.52429 1.04961,0.74882 -1.48058,0.88214 0.884,-0.48873 -4.6625,-0.22003 -0.36717,0.0178 -3.52064,1.99365 -3.78749,2.29211 -2.58916,2.4193 -4.69688,5.29793 -6.31125,8.45623 -0.0548,0.17852 -0.0805,0.36873 -0.16445,0.53555 -0.16265,0.32332 -2.58566,0.42058 -2.89923,0.65481 -2.79792,0.76378 -5.41127,1.96415 -7.82591,3.58165 -0.83304,0.52978 -1.64275,1.05514 -2.58567,1.37173 -0.2147,0.0721 -0.43332,0.13687 -0.65664,0.17451 -0.25223,0.0425 -0.97909,-0.0743 -0.7646,0.065 0.25993,0.16889 0.61933,0.0279 0.929,0.0418 -2.5802,0.1024 -5.11087,-0.37402 -7.69939,-0.23967 -1.75271,0.2348 -3.50019,0.48964 -5.24816,0.75518 -2.02344,0.33643 -3.8985,0.81395 -5.36158,2.38874 -1.86645,1.96985 -3.22056,4.27607 -3.43982,7.04145 0.0647,0.60267 0.0346,1.22322 0.19399,1.80801 0.67444,2.47395 2.52031,3.94592 5.23363,3.582 1.64337,-0.22042 -9.52351,-0.82096 -3.2768,-3.74245 -0.006,-0.28155 0.21768,-0.6923 -0.0192,-0.84465 -0.28126,-0.18091 -2.26657,0.82734 -2.71605,1.07468 -3.314,1.82364 -6.32819,4.14071 -9.20083,6.58653 -3.16032,2.88516 -4.36812,3.81084 -7.16644,7.08076 -1.01004,1.18026 -1.87908,2.47479 -2.85441,3.68389 -1.89825,2.3532 -4.10792,4.51535 -5.34183,7.3317 -0.30567,0.32918 4.34961,4.65203 4.65528,4.32286 z" />
    <path
       style="fill:#ffffff;fill-opacity:1;stroke:none;stroke-width:15;stroke-linecap:round;stroke-linejoin:miter;stroke-dasharray:none;stroke-opacity:1"
       id="path17961"
       d="m 170.0612,285.35942 c -0.75725,4.46416 0.50951,8.88151 1.36505,13.2344 0.51045,1.94299 -0.3205,3.35926 -1.15932,5.03206 -1.48827,3.16559 -1.37252,6.67715 -1.34828,10.08974 -0.20981,3.528 0.48758,7.3297 0.0972,10.83125 -0.0768,0.68934 -0.28409,1.35781 -0.42614,2.03672 -0.53767,3.06716 -1.38848,6.06775 -2.03656,9.1084 -0.45029,2.90862 -0.51957,5.84493 -0.23025,8.77067 0.54484,4.50507 2.29044,8.67651 4.33964,12.67745 1.82416,3.34778 3.90293,6.4884 6.30552,9.4469 1.24724,1.37157 1.9179,2.65148 2.0382,4.46859 0.0369,2.22257 -0.0325,4.43127 0.27854,6.63614 0.12585,2.02042 0.48571,4.00818 0.47564,6.03464 -0.10756,2.39449 -0.90197,4.67274 -1.39444,7.00179 -0.85575,3.13376 -0.31623,6.11736 0.7909,9.09606 1.88449,4.15222 4.9294,7.48055 8.35456,10.41015 3.26077,2.41553 5.89697,2.96457 9.79662,3.87994 0.33014,0.27048 4.15527,-4.39837 3.82513,-4.66884 v 0 c -1.96067,-2.26719 -3.88214,-4.44888 -6.39574,-6.13002 -2.82995,-1.96131 -5.74354,-3.89819 -7.84961,-6.67765 -1.23724,-1.60843 -1.68338,-1.88277 -0.72759,-3.83531 1.21409,-2.80079 2.04759,-5.72658 2.26247,-8.78773 0.14723,-2.30275 0.14991,-4.59473 -0.0994,-6.89136 -0.006,-2.23493 -0.2528,-4.45715 -0.39739,-6.6862 -0.29228,-3.10959 -0.85115,-6.15894 -2.66421,-8.7906 -1.01912,-1.48159 -1.05632,-1.6216 -2.24131,-2.99475 -1.38933,-1.60992 -3.15569,-2.84973 -3.99883,-4.87955 -1.65334,-3.56566 -2.75935,-7.35138 -4.2785,-10.97458 -0.46373,-1.14284 -0.70295,-1.78777 -1.21714,-2.86663 -0.42177,-0.88494 -0.76706,-1.15761 -0.15822,-1.97377 2.13861,-3.16883 3.91735,-6.53333 4.38464,-10.3956 0.31294,-4.82519 0.65235,-9.65583 -0.42029,-14.42911 -0.43008,-2.63726 -1.01783,-5.28743 -0.97555,-7.97149 0.18389,-2.3132 1.19248,-4.44422 1.45539,-6.75332 0.47291,-4.83458 0.1385,-9.81875 -2.56285,-14.01382 -0.0683,-0.36684 -5.25616,0.59859 -5.1879,0.96543 z" />
    <path
       style="fill:#ffffff;fill-opacity:1;stroke:none;stroke-width:15;stroke-linecap:round;stroke-linejoin:miter;stroke-dasharray:none;stroke-opacity:1"
       id="path17963"
       d="m 175.94239,292.08207 c -0.20601,-5.57683 -2.669,-10.73985 -5.12082,-15.64916 -1.6488,-2.94059 -3.51222,-5.80472 -6.11914,-7.99325 -1.37067,-1.15068 -2.33752,-1.6619 -3.85354,-2.58502 -3.16144,-1.76112 -6.69855,-2.637 -9.97883,-4.11694 -2.30554,-1.17362 -3.74964,-3.36612 -5.39272,-5.2715 -1.18012,-1.58841 -3.29736,-2.7066 -3.94947,-4.64519 -0.16875,-2.30692 0.78113,-4.50681 1.43855,-6.67348 0.4493,-0.84673 0.8986,-1.69346 1.3479,-2.5402 0.17042,-0.30007 -4.07327,-2.71015 -4.24368,-2.41007 v 0 c -0.77083,0.88099 -1.54166,1.76199 -2.31249,2.64298 -0.52116,0.6976 -1.11401,1.34699 -1.56348,2.09279 -1.54,2.55527 -1.85566,5.69691 -1.29084,8.56873 0.8489,2.89053 2.33934,5.31244 4.5287,7.40473 0.3767,0.36936 0.75341,0.73872 1.13011,1.10808 0.37627,0.32065 0.77197,0.61981 1.12881,0.96196 1.5096,1.44746 2.73051,3.20706 4.48433,4.40171 2.98512,2.05171 6.26536,3.4349 9.63081,4.74741 3.60999,1.73741 4.6825,3.29537 5.55441,7.2868 1.44597,5.50032 2.89271,11.308 6.96514,15.51451 0.20116,0.53855 7.81742,-2.30634 7.61625,-2.84489 z" />
    <path
       style="fill:#ffffff;fill-opacity:1;stroke:none;stroke-width:15;stroke-linecap:round;stroke-linejoin:miter;stroke-dasharray:none;stroke-opacity:1"
       id="path17965"
       d="m 177.14088,303.53458 c 4.21821,-2.11389 7.10969,-5.54474 11.41139,-7.57388 1.41956,-0.31173 4.37022,-1.05326 5.74828,-0.44261 0.23366,0.10354 -0.43878,0.63883 -0.20372,0.73916 0.15174,0.0648 7.21779,1.32289 7.27297,1.33279 3.82577,0.51813 7.5986,1.5721 11.45218,1.90414 1.3925,0.11998 2.95657,-0.52338 4.19087,0.13232 1.37031,0.72795 1.93669,2.42483 2.90504,3.63725 0.35329,0.47287 7.04075,-4.52347 6.68746,-4.99634 v 0 c -1.53428,-1.40032 -3.06855,-2.80064 -4.60283,-4.20096 -0.918,-1.4446 -1.57538,-3.09267 -2.75402,-4.33382 -3.10654,-3.2713 -8.48535,-4.39345 -12.63284,-5.42985 -1.53104,-0.19083 -3.0541,-0.46315 -4.5931,-0.5725 -6.85531,-0.48711 -13.97723,0.29982 -20.34458,2.93326 -5.05837,2.56752 -10.04279,5.89424 -12.20611,11.38715 -0.38777,0.54228 7.28124,6.02617 7.66901,5.48389 z" />
    <path
       style="fill:#ffffff;fill-opacity:1;stroke:none;stroke-width:15;stroke-linecap:round;stroke-linejoin:miter;stroke-dasharray:none;stroke-opacity:1"
       id="path17967"
       d="m 383.93769,147.31995 c -3.51518,3.79973 -4.71884,8.30164 -5.1587,13.32001 0.0867,3.00823 0.15647,6.00752 -0.0172,9.01282 -0.13212,2.49633 -0.18489,5.04414 0.52114,7.45821 0.20393,0.44349 0.37447,0.90393 0.6118,1.33049 0.76708,1.37871 0.74592,0.94628 1.61533,2.24745 0.90797,1.3589 1.6854,2.853 2.47154,4.28416 1.59261,2.90876 1.87137,5.2954 1.32905,8.4936 -0.24524,1.90242 -1.18883,3.65662 -1.51878,5.53233 -0.66821,3.79861 0.0767,7.41362 0.81979,11.12509 0.60111,1.46223 1.20222,2.92446 1.80333,4.38669 1.17999,1.44963 2.67675,2.691 3.53997,4.3489 1.0457,2.00835 1.39314,4.30894 2.08972,6.46341 0.27571,0.67477 9.81832,-3.22442 9.54261,-3.89919 v 0 c -1.29404,-1.84527 -2.96501,-3.47706 -3.8821,-5.53582 -1.19836,-2.69015 0.0454,-6.13567 -2.16334,-8.56603 -1.17418,-2.58073 -2.24581,-5.05114 -2.98864,-7.78784 -0.15345,-0.56533 -0.40614,-1.11662 -0.43978,-1.70144 -0.0267,-0.46467 0.54002,-3.0254 0.6179,-3.39915 0.65503,-4.49144 0.27036,-8.90776 -2.158,-12.8669 -1.64925,-2.32545 -3.51683,-4.5818 -6.16387,-5.81598 -0.7674,-1.82102 0.65316,-3.98722 0.37736,-5.89076 0.0661,-2.62417 -0.18732,-5.31497 1.12566,-7.70208 1.90769,-3.9952 4.12274,-8.02487 4.21677,-12.56617 0.16064,-0.43781 -6.03093,-2.70961 -6.19157,-2.2718 z" />
    <path
       style="fill:#ffffff;fill-opacity:1;stroke:none;stroke-width:15;stroke-linecap:round;stroke-linejoin:miter;stroke-dasharray:none;stroke-opacity:1"
       id="path17969"
       d="m 340.01551,431.96643 c 0.45596,-5.10729 -1.69107,-9.86395 -3.08717,-14.66172 -1.30369,-3.8015 -0.70098,-7.83347 -0.36638,-11.74607 0.17908,-2.49003 0.1929,-4.98607 0.32454,-7.47847 0.0394,-0.74502 0.002,-1.50026 0.13767,-2.23393 0.17121,-0.92806 0.98318,-2.86932 1.34172,-3.77662 1.40044,-2.99966 2.8243,-2.95545 5.72919,-3.75499 2.5163,-0.76756 5.24476,-1.65002 7.58222,-2.85903 1.78372,-0.9226 2.75809,-1.81267 4.32607,-3.04826 3.56896,-3.30397 5.92006,-5.74812 6.57832,-10.68452 0.30679,-2.00917 -0.0831,-1.11184 1.15598,-2.69793 0.12185,-0.13849 -1.83674,-1.86181 -1.9586,-1.72332 v 0 c -2.17139,1.3631 -1.04314,0.79132 -3.37894,1.72677 -1.66063,0.70942 -1.86074,0.71142 -3.37654,1.6885 -2.26973,1.46305 -3.9911,3.58468 -6.11883,5.23299 -0.38413,0.33815 -2.85207,2.4994 -3.2424,2.88659 -0.43541,0.4319 -0.77783,0.95436 -1.23215,1.36631 -1.07436,0.97416 -2.49139,1.58744 -3.77675,2.20831 -4.07144,1.64953 -7.29586,3.42613 -9.06713,7.7297 -0.2518,0.82529 -0.57477,1.63214 -0.7554,2.47587 -0.18661,0.87166 -0.22179,1.769 -0.34248,2.65219 -0.45949,3.36258 -0.7822,6.73956 -0.61614,10.14142 0.1385,4.2872 0.22656,8.57489 -0.0119,12.86151 0.27525,5.20611 0.74214,10.5887 3.67427,15.06915 0.0972,0.45826 6.57798,-0.91619 6.48079,-1.37445 z" />
    <path
       style="fill:#ffffff;fill-opacity:1;stroke:none;stroke-width:15;stroke-linecap:round;stroke-linejoin:miter;stroke-dasharray:none;stroke-opacity:1"
       id="path17971"
       d="m 280.39621,360.15055 c -3.55372,3.45051 -4.82208,8.21296 -5.48088,12.96553 -0.14031,2.59632 -0.42575,2.37657 -2.24978,3.92642 -3.31098,2.46852 -5.31713,5.88632 -7.02589,9.55845 -1.1523,3.77487 -0.22182,1.9468 -3.03509,5.35321 -0.19804,0.31865 4.30827,3.11926 4.5063,2.80062 v 0 c 2.59213,-3.53286 1.03901,-2.17183 4.52485,-4.23165 3.2255,-2.38726 6.2452,-4.9464 8.29572,-8.4626 1.41215,-2.1025 2.62214,-4.31709 3.87051,-6.51877 2.09556,-3.82873 4.21429,-7.85168 4.3625,-12.3057 0.21818,-0.5493 -7.55006,-3.63481 -7.76824,-3.08551 z" />
    <path
       style="fill:#ffffff;fill-opacity:1;stroke:none;stroke-width:15;stroke-linecap:round;stroke-linejoin:miter;stroke-dasharray:none;stroke-opacity:1"
       id="path17973"
       d="m 199.34563,135.7744 c 2.70878,4.00548 6.43268,7.21649 10.18322,10.22293 2.51571,2.11336 5.26882,3.89579 8.25644,5.25576 4.02123,1.72608 8.27778,1.77966 12.52266,0.92561 3.83231,-0.91533 7.11778,-3.0638 10.32168,-5.25665 0.19698,-0.17975 0.39395,-0.3595 0.59093,-0.53926 0.31758,-0.16782 -2.05576,-4.65907 -2.37334,-4.49125 v 0 c -0.58457,0.0446 -1.16914,0.0892 -1.75371,0.13377 -3.29777,1.11157 -6.30198,2.89247 -9.6081,3.98633 -0.50709,0.11922 -1.01419,0.23844 -1.52128,0.35766 0.0283,0.0662 0.15462,0.18044 0.0849,0.19857 -1.67216,0.43496 -3.55265,0.10422 -5.21587,-0.16463 -2.81361,-0.81589 -3.87048,-2.53164 -5.58328,-4.82096 -3.23024,-4.06673 -6.96361,-7.94027 -11.99466,-9.66993 -0.27308,-0.27645 -4.18273,3.5856 -3.90964,3.86205 z" />
    <path
       style="fill:#ffffff;fill-opacity:1;stroke:none;stroke-width:15;stroke-linecap:round;stroke-linejoin:miter;stroke-dasharray:none;stroke-opacity:1"
       id="path17975"
       d="m 135.68737,189.71813 c 2.01462,-5.99741 1.20763,-12.34638 -0.27268,-18.35655 -1.05124,-3.45882 -2.59861,-6.74106 -2.81548,-10.38531 -0.19202,-3.14397 1.52873,-5.56566 3.2595,-8.00949 2.55421,-3.22517 4.90663,-6.60405 6.39946,-10.45349 0.89697,-2.8309 0.13846,-5.35523 -1.3089,-7.80937 -1.49001,-2.47394 -1.53266,-5.41626 -1.81639,-8.20748 -9.2e-4,-0.35934 -5.0828,-0.34644 -5.08188,0.0129 v 0 c -0.31368,3.74054 -0.57465,7.58323 1.14588,11.05488 0.18425,0.29222 0.3431,0.6021 0.55275,0.87667 0.39231,0.51377 0.58191,-0.3332 0.0636,0.3901 -0.17537,0.24472 -0.33825,0.49815 -0.50738,0.74722 -2.35253,3.24493 -5.15496,6.16168 -7.08618,9.70492 -1.99655,3.91521 -3.42753,7.98128 -2.74863,12.44586 0.63153,3.56207 1.63947,7.06461 1.77123,10.70317 0.34153,5.8854 0.36302,12.02166 2.74474,17.51427 0.0162,0.40308 5.71651,0.17478 5.70037,-0.2283 z" />
  </g>
</svg>
